Music_BirchsLab:
	musicheader 3, 1, Music_BirchsLab_Ch1
	musicheader 1, 2, Music_BirchsLab_Ch2
	musicheader 1, 3, Music_BirchsLab_Ch3


Music_BirchsLab_Ch1:
	dutycycle $1
	vibrato $12, $15
	notetype $6, $94
	tempo 192
	octave 2
	note D_, 12
	octave 1
	note A_, 2
	note A_, 2
	octave 2
	note D_, 6
	octave 1
	note A_, 6
	octave 2
	note D_, 4
	octave 1
	note B_, 6
	note B_, 6
	note B_, 4
	note A_, 6
	note A_, 6
	note A_, 4
	octave 2
	note D_, 12
	octave 1
	note A_, 2
	note A_, 2
	octave 2
	note D_, 6
	octave 1
	note A#, 6
	octave 2
	note D_, 4
	octave 1
	note G_, 6
	note G_, 6
	note B_, 2
	note G_, 2
	note A_, 6
	note B_, 6
	octave 2
	note C#, 4
	octave 1
	note B_, 12
	note F#, 2
	note A_, 2
	note B_, 6
	octave 2
	note D_, 6
	octave 1
	note D_, 4
	note A_, 12
	note F#, 2
	note F#, 2
	note A_, 4
	octave 2
	note E_, 4
	note F#, 4
	note C#, 2
	octave 1
	note F#, 2
	note G_, 12
	note D_, 2
	note F#, 2
	note G_, 6
	note A#, 6
	note G_, 4
	note D_, 12
	note D_, 2
	note D_, 2
	note F#, 4
	note B_, 4
	octave 2
	note C#, 4
	octave 1
	note A_, 2
	note C#, 2
	note D_, 12
	note D_, 2
	note D_, 2
	note D_, 6
	note D_, 6
	note D_, 4
	note G_, 12
	note G_, 2
	note G_, 2
	note G_, 6
	note A_, 6
	note G_, 4
	note A_, 12
	note A_, 2
	note A_, 2
	note A_, 12
	note C#, 4
	note D_, 12
	note D_, 2
	note A_, 2
	note D_, 12
	note A_, 2
	octave 2
	note C#, 2
	loopchannel 0, Music_BirchsLab_Ch1
	
Music_BirchsLab_Ch2:
	dutycycle $3
	vibrato $10, $16
	notetype $6, $b6
	note __, 3
	octave 5
	note C#, 1
	note D_, 4
	intensity $b0
	note C#, 6
	octave 4
	intensity $b5
	note B_, 2
	note A_, 4
	note B_, 4
	note A_, 4
	note G_, 4
	intensity $b3
	note F#, 8
	octave 5
	note D_, 8
	octave 4
	intensity $b0
	note A_, 8
	intensity $b6
	note A_, 11
	note G#, 1
	note A_, 4
	intensity $b0
	note G_, 6
	intensity $b5
	note F#, 2
	note E_, 4
	note F#, 4
	note E_, 4
	note D_, 4
	note B_, 4
	note A#, 4
	intensity $b0
	note B_, 6
	octave 5
	note D_, 2
	note C#, 8
	intensity $b7
	note C#, 8
	dutycycle $0
	intensity $94
	octave 4
	note F#, 6
	intensity $97
	note F#, 6
	intensity $94
	note E_, 4
	note D_, 4
	note D_, 4
	intensity $97
	note F#, 8
	dutycycle $3
	intensity $b4
	note C#, 6
	intensity $b7
	note C#, 6
	intensity $b4
	octave 3
	note B_, 4
	note A_, 4
	note A_, 4
	intensity $b7
	octave 4
	note C#, 8
	dutycycle $0
	intensity $97
	note G_, 4
	note G_, 4
	note G_, 6
	note G_, 2
	octave 5
	note D_, 4
	note C#, 4
	octave 4
	note B_, 6
	note A_, 2
	dutycycle $3
	intensity $b7
	octave 3
	note A_, 4
	note A_, 4
	note B_, 6
	octave 4
	note C#, 2
	note F#, 4
	note E_, 4
	note F#, 6
	note C#, 2
	note __, 3
	octave 4
	note F_, 1
	note F#, 4
	intensity $b0
	note G_, 6
	note F#, 2
	intensity $b5
	note E_, 4
	note D_, 4
	note C#, 4
	note F#, 4
	note G_, 4
	note F#, 4
	intensity $b0
	note G_, 6
	note B_, 2
	octave 5
	note D_, 8
	intensity $b6
	note D_, 8
	note __, 4
	octave 4
	note D_, 4
	intensity $b0
	note E_, 6
	note D_, 2
	intensity $b5
	note E_, 4
	note F#, 4
	note G_, 4
	note E_, 4
	intensity $b3
	note F#, 8
	note A_, 8
	intensity $b7
	note D_, 16
	loopchannel 0, Music_BirchsLab_Ch2
	
Music_BirchsLab_Ch3:
	notetype $6, $14
	note __, 8
	octave 5
	note A_, 1
	note G#, 1
	note A_, 1
	note G#, 1
	note A_, 2
	note __, 10
	note A_, 1
	note G#, 1
	note A_, 1
	note G#, 1
	note A_, 2
	note __, 2
	note D_, 4
	note __, 4
	note F#, 4
	note __, 4
	note E_, 16
	note __, 8
	note F#, 1
	note F_, 1
	note F#, 1
	note F_, 1
	note F#, 2
	note __, 10
	note F#, 1
	note F_, 1
	note F#, 1
	note F_, 1
	note F#, 2
	note __, 2
	note G_, 4
	note F#, 4
	note G_, 6
	note B_, 2
	note A_, 12
	note __, 4
	note D_, 4
	note __, 2
	note D_, 6
	note C#, 2
	note __, 2
	octave 4
	note B_, 3
	note __, 1
	note B_, 3
	note __, 1
	octave 5
	note D_, 6
	note __, 2
	intensity $25
	octave 2
	note A_, 2
	octave 3
	note C#, 2
	note E_, 2
	note A_, 2
	note F#, 2
	note A_, 2
	octave 4
	note C#, 2
	note F#, 2
	note A_, 2
	note E_, 2
	note C#, 2
	octave 3
	note A_, 2
	note F#, 2
	note C#, 2
	octave 2
	note A_, 2
	note F#, 2
	intensity $14
	octave 5
	note D_, 3
	note __, 1
	note D_, 3
	note __, 1
	note D_, 5
	note __, 1
	note D_, 2
	note G_, 4
	note F#, 4
	note E_, 6
	note D_, 1
	note __, 1
	note D_, 16
	note __, 16
	note __, 8
	note F#, 1
	note F_, 1
	note F#, 1
	note F_, 1
	note F#, 2
	note __, 10
	note F#, 1
	note F_, 1
	note F#, 1
	note F_, 1
	note F#, 2
	note __, 2
	note D_, 4
	note C#, 4
	note D_, 6
	note F#, 2
	note G_, 16
	note __, 4
	note A_, 1
	note G#, 1
	note A_, 1
	note G#, 1
	note A_, 2
	note __, 6
	note C#, 2
	note E_, 2
	note A_, 1
	note G#, 1
	note A_, 1
	note G#, 1
	note A_, 2
	note __, 6
	octave 4
	note A_, 4
	note __, 4
	octave 5
	note D_, 4
	note __, 4
	octave 4
	note F#, 8
	note __, 8
	loopchannel 0, Music_BirchsLab_Ch3