Music_RSIntro1:
	musicheader 4, 1, Music_RSIntro1_Ch1
	musicheader 1, 2, Music_RSIntro1_Ch2
	musicheader 1, 3, Music_RSIntro1_Ch3
	musicheader 1, 4, Music_RSIntro1_Ch4


Music_RSIntro1_Ch1:
	vibrato $12, $15
	tempo 160
	dutycycle 2
	notetype $6, $c1
	octave 4
	note E_, 2
	intensity $91
	note E_, 2
	intensity $c1
	note F_, 2
	intensity $91
	note F_, 2
	intensity $c1
	note G_, 2
	intensity $91
	note G_, 2
	intensity $c1
	note C_, 2
	intensity $91
	note C_, 2
	intensity $c1
	note D_, 2
	intensity $91
	note D_, 2
	intensity $c1
	note E_, 2
	intensity $91
	note E_, 2
	intensity $a1
	note E_, 2
	intensity $71
	note E_, 2
	intensity $81
	note E_, 2
	intensity $51
	note E_, 2
	intensity $c1
	octave 3
	note G_, 2
	intensity $91
	note G_, 2
	intensity $c1
	octave 4
	note C_, 2
	intensity $91
	note C_, 2
	intensity $c1
	note D_, 2
	intensity $91
	note D_, 2
	intensity $c1
	note E_, 2
	intensity $91
	note E_, 2
	intensity $c1
	note G_, 2
	intensity $91
	note G_, 2
	intensity $c1
	note A_, 2
	intensity $91
	note A_, 2
	intensity $c1
	octave 5
	note C_, 2
	intensity $91
	note C_, 2
	intensity $c1
	note D_, 2
	intensity $91
	note D_, 2
	dutycycle $1
	intensity $60
	octave 3
	note F_, 7
	note F#, 1
	note G_, 7
	note G#, 1
	note A_, 6
	octave 4
	note D_, 1
	note D#, 1
	note E_, 6
	note D_, 1
	note C_, 1
	octave 3
	note B_, 14
	octave 4
	note C_, 1
	note C#, 1
	note D_, 8
	octave 3
	note B_, 1
	octave 4
	note C_, 1
	octave 3
	note B_, 2
	note A_, 2
	note F_, 2
	dutycycle $0
	octave 4
	intensity $40
	callchannel Music_RSIntro1_Ch1_branch_1
	intensity $50
	callchannel Music_RSIntro1_Ch1_branch_1
	intensity $60
	callchannel Music_RSIntro1_Ch1_branch_2
	intensity $70
	callchannel Music_RSIntro1_Ch1_branch_2
	tempo 146
	callchannel Music_RSIntro1_Ch1_branch_1
	callchannel Music_RSIntro1_Ch1_branch_1
	tempo 136
	note B_, 2
	note F_, 2
	note D_, 2
	note F_, 2
	octave 3
	note B_, 2
	octave 4
	note D_, 2
	note F_, 2
	note G_, 2
	note B_, 16
	intensity $76
	note B_, 16
	note __, 16
	note __, 8

	
	tempo 124
	dutycycle $0
	octave 3 
	intensity $62
Music_RSIntro1_Ch1_loop_1:
	note G_, 2
	note F_, 2
	note E_, 2
	note D_, 2
	loopchannel 3, Music_RSIntro1_Ch1_loop_1
	note C_, 2
	octave 2
	note B_, 2
	octave 3
	callchannel Music_RSIntro1_Ch1_branch_3
	octave 4
	note C_, 2
	note D_, 2
	note E_, 2
	note F_, 2
	note E_, 2
	note D_, 2
	note C_, 2
	octave 3
	note B_, 2
	note A_, 2
	note G_, 2
	note E_, 2
Music_RSIntro1_Ch1_loop_2:
	octave 3
	note D_, 2
	note C_, 2
	octave 2
	note B_, 2
	note A_, 2
	loopchannel 3, Music_RSIntro1_Ch1_loop_2
	note B_, 2
	octave 3
	callchannel Music_RSIntro1_Ch1_branch_3
	octave 4
	note C_, 2
	note D_, 2
	note E_, 2
	note F_, 2
	note G_, 2
	note F_, 2
	note E_, 2
	note D_, 2
	note C_, 2
	octave 3
	note B_, 2
	note A_, 2
	note G_, 2
Music_RSIntro1_Ch1_loop_3:
	note E_, 2
	note F_, 2
	note E_, 2
	note D_, 2
	loopchannel 3, Music_RSIntro1_Ch1_loop_3
	note C_, 2
	octave 2
	note B_, 2
	note A_, 2
	note B_, 2
	octave 3
	callchannel Music_RSIntro1_Ch1_branch_3
	octave 4
	callchannel Music_RSIntro1_Ch1_branch_3
	octave 5
	note C_, 2
	note C#, 2
	note D_, 2
	octave 4
	note B_, 2
	note G_, 2
	note B_, 2
	note G_, 2
	note D_, 2
	octave 3
	note B_, 2
	octave 4
	note D_, 2
	octave 3
	note B_, 2
	note G_, 2
	note D_, 2
	note G_, 2
	note D_, 2
	octave 2
	note B_, 2
	note G_, 2
	note B_, 2
	intensity $77
	octave 3
	note D_, 8
	note F_, 8
	
	dutycycle 2
	notetype $8, $71
	note G_, 1
	note B_, 1
	octave 4
	callchannel Music_RSIntro1_Ch1_branch_4
	octave 5
	callchannel Music_RSIntro1_Ch1_branch_4
	octave 6
	callchannel Music_RSIntro1_Ch1_branch_4
	callchannel Music_RSIntro1_Ch1_branch_5
	octave 6
	note G_, 1
	callchannel Music_RSIntro1_Ch1_branch_5
	note D_, 1
	octave 6
	callchannel Music_RSIntro1_Ch1_branch_5
	note D_, 1
	octave 4
	note B_, 1
	octave 6
	note D_, 1
	octave 5
	note B_, 1
	note G_, 1
	note D_, 1
	octave 4
	note B_, 1
	note G_, 1
	tempo 176
	intensity $73
	octave 5
	note B_, 1
	note G_, 1
	note F_, 1
	note D_, 1
	octave 4
	note B_, 1
	note G_, 1
	octave 5
	note G_, 1
	note F_, 1
	note D_, 1
	octave 4
	note B_, 1
	note G_, 1
	note D_, 1
	octave 5
	note F_, 1
	note D_, 1
	octave 4
	note B_, 1
	note G_, 1
	note D_, 1
	octave 3
	note B_, 1
	intensity $77
	note G_, 16
	endchannel

	
Music_RSIntro1_Ch1_branch_1:
	note A_, 2
	note C_, 2
	note A_, 2
	note B_, 2
	note A_, 2
	note C_, 2
	note A_, 2
	note B_, 2
	endchannel

Music_RSIntro1_Ch1_branch_2:
	note B_, 2
	note D_, 2
	note B_, 2
	octave 5
	note C_, 2
	octave 4
	note B_, 2
	note D_, 2
	note B_, 2
	octave 5
	note C_, 2
	octave 4
	endchannel
	
Music_RSIntro1_Ch1_branch_3:
	note C_, 2
	note D_, 2
	note E_, 2
	note F_, 2
	note G_, 2
	note A_, 2
	note B_, 2
	endchannel

Music_RSIntro1_Ch1_branch_4:
	note D_, 1
	note F_, 1
	note G_, 1
	note B_, 1
	endchannel
	
Music_RSIntro1_Ch1_branch_5:
	note F_, 1
	note D_, 1
	octave 5
	note B_, 1
	note G_, 1
	endchannel
	
Music_RSIntro1_Ch2:
	dutycycle $0
	vibrato $12, $36
	notetype $6, $c3
	note __, 16
	note __, 16
	note __, 16
	octave 2
	note C_, 4
	octave 1
	note B_, 4
	note A_, 4
	note G_, 4
	intensity $e3
	note F_, 4
	octave 2
	intensity $b4
	note C_, 4
	note G_, 4
	intensity $b0
	note A_, 6
	intensity $b7
	note A_, 6
	note G_, 4
	note F_, 4
	octave 1
	intensity $e3
	note F_, 4
	intensity $b4
	octave 2
	note D_, 4
	note A_, 4
	intensity $b0
	note B_, 6
	intensity $b7
	note B_, 6
	octave 3
	note C_, 4
	note D_, 4
	octave 1
	intensity $e3
	note F_, 4
	intensity $b4
	octave 2
	note C_, 4
	note G_, 4
	intensity $b0
	note A_, 6
	intensity $b7
	note A_, 14
	octave 1
	intensity $e3
	note F_, 4
	intensity $b4
	octave 2
	note D_, 4
	note A_, 4
	intensity $b0
	note B_, 6
	intensity $b7
	note B_, 6
	note A_, 4
	note G_, 4
	octave 1
	intensity $b4
	note F_, 4
	note E_, 8
	note F_, 4
	note F#, 4
	octave 2
	note C_, 8
	octave 1
	note F#, 4
	note F#, 8
	notetype $4, $b4
	note G_, 4
	note B_, 4
	octave 2
	note F_, 4
	octave 1
	notetype $6, $b7
	note G_, 16
	intensity $47
	note G_, 16
	note __, 8
	
	octave 4
	dutycycle $1
	intensity $b7
	note G_, 8
	note D_, 8
	intensity $b4
	note E_, 4
	note F_, 4
	intensity $b0
	note G_, 12
	intensity $b7
	note G_, 8
	intensity $50
	note F#, 1
	intensity $40
	note F_, 1
	intensity $30
	note E_, 1
	intensity $21
	note D#, 5
	intensity $b2
	dutycycle $2
	note E_, 4
	note F_, 4
	note G_, 4
	octave 5
	note C_, 2
	note C_, 2
	octave 4
	note G_, 4
	note F_, 4
	note E_, 4
	note D_, 4
	dutycycle $3
	intensity $b3
	note E_, 4
	note F_, 4
	note G_, 4
	note A_, 4
	intensity $b0
	note B_, 7
	intensity $b7
	note B_, 2
	intensity $90
	note A#, 1
	intensity $80
	note A_, 1
	intensity $70
	note G#, 1
	intensity $64
	note G_, 4
	intensity $b2
	dutycycle $0
	note B_, 2
	octave 5
	note D_, 2
	note G_, 4
	note D_, 2
	octave 4
	note B_, 2
	dutycycle $2
	notetype $8, $b2
	note B_, 2
	note G_, 2
	note B_, 2
	notetype $6, $b2
	octave 5
	note D_, 2
	octave 4
	note B_, 2
	octave 5
	note D_, 2
	note F_, 2
	dutycycle $1
	intensity $b0
	note E_, 12
	intensity $b7
	note E_, 8
	intensity $b2
	note F_, 4
	note E_, 4
	note D_, 2
	note F_, 2
	intensity $b0
	note G_, 8
	note F_, 8
	notetype $8, $b0
	note E_, 4
	note D_, 4
	note C_, 4
	notetype $6, $b0
	note D_, 8
	intensity $b7
	note D_, 8
	intensity $b0
	note E_, 8
	intensity $b7
	note E_, 8
	intensity $b0
	note F_, 8
	intensity $b7
	note F_, 8
	intensity $b0
	note G_, 16
	intensity $b7
	note G_, 16
	intensity $47
	note G_, 16
	endchannel
	
Music_RSIntro1_Ch3:
	notetype $6, $13
	note __, 16
	note __, 8
	octave 6
	note G_, 1
	note A_, 1
	note G_, 2
	note F_, 2
	note E_, 2
	note C_, 2
	intensity $23
	note C_, 2
	intensity $13
	note D#, 1
	note D_, 16
	intensity $23
	note D_, 11
	intensity $13
	octave 5
	note G#, 1
	note A_, 7
	note B_, 8
	octave 6
	note C_, 8
	note G#, 1
	note G_, 16
	note G_, 8
	intensity $23
	note G_, 7
	intensity $13
	note F_, 1
	note G_, 1
	note F_, 2
	note E_, 2
	note D_, 2
	note C_, 2
	note __, 2
	note D#, 1
	note D_, 16
	note D_, 16
	note D_, 12
	intensity $23
	note D_, 7
	intensity $13
	note F_, 2
	note E_, 2
	note D_, 2
	note C_, 2
	octave 4
	intensity $16
	note F_, 4
	note C_, 2
	note F_, 2
	note A_, 8
	note A_, 4
	note F_, 2
	note A_, 2
	octave 5
	note C_, 8
	octave 4
	note B_, 4
	note A#, 1
	note G#, 1
	note G_, 1
	note F_, 1
	notetype $4, $16
	octave 5
	note D_, 4
	octave 4
	note B_, 4
	octave 5
	note D_, 4
	notetype $6, $16
	note G_, 16
	intensity $26
	note G_, 8
	intensity $36
	note G_, 8
	note __, 8
	
	octave 2
	intensity $29
	note B_, 8
	octave 3
	note D_, 8
	octave 2
	intensity $19
	note C_, 4
	note __, 16
	octave 1
	note G_, 4
	note __, 4
	octave 2
	note G_, 4
	note C_, 4
	note __, 8
	note G_, 1
	note __, 1
	note G_, 1
	note __, 1
	octave 3
	note C_, 4
	note __, 4
	octave 2
	note G_, 4
	note __, 4
	note G_, 4
	note __, 16
	octave 1
	note G_, 4
	note __, 4
	octave 2
	note D_, 4
	octave 1
	note G_, 4
	note __, 8
	octave 2
	note G_, 1
	note __, 1
	note G_, 1
	note __, 1
	note G_, 4
	note __, 4
	octave 1
	note G_, 4
	note __, 4
	note A_, 4
	note __, 16
	note E_, 4
	note __, 4
	octave 2
	note E_, 4
	octave 1
	note A_, 4
	note __, 8
	octave 2
	note E_, 1
	note __, 1
	note E_, 1
	note __, 1
	note A_, 4
	note __, 4
	octave 1
	note E_, 4
	note __, 4
	octave 2
	note G_, 16
	note F_, 16
	note D_, 10
	note C_, 2
	octave 1
	note B_, 2
	note A_, 2
	note G_, 16
	intensity $29
	note G_, 16
	intensity $39
	note G_, 16
	endchannel
	
Music_RSIntro1_Ch4:
	togglenoise $3
	notetype $6
Music_RSIntro1_Ch4_loop_1:
	note __, 16
	loopchannel 14, Music_RSIntro1_Ch4_loop_1
	note C#, 1
	note C#, 1
	note C#, 1
	note C#, 1
	note C#, 1
	note C#, 1
	note C#, 1
	note C#, 1
	notetype $4
	note C_, 4
	note C_, 4
	note C_, 4
	notetype $c
	note B_, 12
Music_RSIntro1_Ch4_loop_2:
	note __, 16
	loopchannel 10, Music_RSIntro1_Ch4_loop_2
	notetype $8
Music_RSIntro1_Ch4_loop_3:
	note D_, 3
	note D_, 1
	note D_, 1
	note D_, 1
	loopchannel 4, Music_RSIntro1_Ch4_loop_3
	note B_, 8
	endchannel