Music_HoennWildBattle:
    musicheader 4, 1, Music_HoennWildBattle_Ch1
    musicheader 1, 2, Music_HoennWildBattle_Ch2
    musicheader 1, 3, Music_HoennWildBattle_Ch3
    musicheader 1, 4, Music_HoennWildBattle_Ch4
 
Music_HoennWildBattle_Ch1:
    tempo $61
    volume $77
    stereopanning $77
    dutycycle 1
    tone $0002
    vibrato $12, $15
    octave 5
    notetype $C, $B2
    note C_, 1
    octave 4
    note B_, 1
    note A#, 1
    note A_, 1
    note A#, 1
    note A_, 1
    note G#, 1
    note G_, 1
    note G#, 1
    note G_, 1
    note F#, 1
    note F_, 1
    note F#, 1
    note F_, 1
    note E_, 1
    note D#, 1
    note E_, 1
    note D#, 1
    note D_, 1
    note C#, 1
    note D_, 1
    note C#, 1
    note C_, 1
    octave 3
    note B_, 1
    octave 4
    note C_, 1
    octave 3
    note B_, 1
    note A#, 1
    note A_, 1
    note A#, 1
    note A_, 1
    note G#, 1
    note G_, 1
    note G_, 6
    note C_, 6
    note G_, 4
    note G#, 6
    note F_, 6
    note G#, 4
    note G_, 6
    note C_, 6
    note G_, 4
    note G#, 6
    note A#, 6
    note B_, 4
    intensity $B3
    octave 4
    note G_, 6
    note C_, 6
    note G_, 4
    note G#, 6
    note F_, 6
    note G#, 4
    note G_, 6
    note C_, 6
    note G_, 4
    note G#, 6
    note A#, 6
    note B_, 4
Music_HoennWildBattle_Ch1_loop:
    intensity $B2
    octave 3
    note C_, 2
    note D_, 2
    note E_, 2
    note F_, 4
    note G_, 2
    note E_, 4
    note F_, 2
    note E_, 2
    note F_, 2
    note G_, 4
    note E_, 2
    note C_, 2
    note E_, 2
    intensity $B6
    note F_, 8
    note A#, 8
    octave 4
    note D_, 6
    intensity $B2
    note F_, 4
    note F_, 2
    note E_, 2
    note C_, 2
    octave 3
    note C_, 2
    note D_, 2
    note E_, 2
    note F_, 4
    note G_, 2
    note E_, 4
    note C_, 2
    note D_, 2
    note E_, 2
    note F_, 4
    note G_, 2
    note A_, 2
    note F_, 2
    intensity $B6
    note F_, 8
    note A#, 8
    octave 4
    note D_, 6
    intensity $B2
    note F_, 4
    note E_, 2
    note D_, 2
    octave 3
    note B_, 2
    intensity $B5
    octave 4
    note C_, 6
    octave 3
    note G_, 6
    note E_, 4
    octave 4
    note E_, 6
    note D_, 6
    note C_, 4
    octave 3
    note A#, 6
    note F_, 6
    note D_, 4
    octave 4
    note D_, 6
    note C_, 6
    octave 3
    note A#, 4
    octave 4
    note C_, 6
    octave 3
    note G_, 6
    note E_, 4
    intensity $B7
    octave 4
    note E_, 16
    note C_, 12
    octave 3
    note G_, 4
    octave 4
    note E_, 10
    intensity $B2
    note E_, 2
    note F_, 2
    note __, 2
    intensity $B7
    octave 3
    note A#, 8
    octave 4
    note D_, 8
    octave 3
    note A#, 4
    octave 4
    note C_, 4
    note D_, 4
    octave 3
    note B_, 4
    octave 4
    note C_, 12
    octave 3
    note G_, 4
    octave 4
    note E_, 10
    intensity $B2
    note E_, 2
    note G_, 2
    note __, 2
    intensity $B7
    note G#, 10
    note __, 2
    note G_, 4
    note G#, 4
    note G_, 4
    note F_, 4
    note C#, 4
    note C_, 16
    note C_, 8
    note E_, 8
    intensity $B2
    note G_, 6
    note C_, 6
    note G_, 4
    note G#, 6
    note F_, 6
    note G#, 4
    note G_, 6
    note C_, 6
    note G_, 4
    note G#, 6
    note F_, 6
    note G#, 4
    dutycycle 2
    note C_, 2
    octave 3
    note G_, 2
    octave 4
    note C_, 2
    note C#, 4
    note C_, 2
    octave 3
    note A#, 2
    octave 4
    note C#, 2
    note C_, 2
    octave 3
    note G_, 2
    octave 4
    note C_, 2
    note E_, 4
    note C_, 2
    note C#, 2
    octave 3
    note B_, 2
    octave 4
    note C_, 2
    octave 3
    note G_, 2
    octave 4
    note C_, 2
    note C#, 4
    note C_, 2
    octave 3
    note A#, 2
    octave 4
    note C#, 2
    note C_, 2
    octave 3
    note G_, 2
    octave 4
    note C_, 2
    note F_, 4
    note C_, 2
    note C#, 2
    octave 3
    note B_, 2
    dutycycle 1
    loopchannel 0, Music_HoennWildBattle_Ch1_loop
 
Music_HoennWildBattle_Ch2:
    dutycycle 1
    tone $0001
    vibrato $08, $26
    octave 5
    notetype $C, $C2
    note G_, 1
    note F#, 1
    note G_, 2
    note G_, 1
    note F#, 1
    note G_, 2
    note G_, 1
    note F#, 1
    note G_, 2
    note G_, 1
    note F#, 1
    note G_, 2
    note G_, 1
    note F#, 1
    note G_, 2
    note G_, 1
    note F#, 1
    note G_, 2
    note G_, 1
    note F#, 1
    note G_, 2
    note G_, 1
    note F#, 1
    note G_, 2
    octave 4
    note C_, 6
    octave 3
    note G_, 6
    octave 4
    note C_, 4
    note C#, 6
    note D#, 6
    note C#, 4
    note C_, 6
    octave 3
    note G_, 6
    octave 4
    note C_, 4
    note C#, 6
    note D#, 6
    note F_, 4
    intensity $C3
    octave 5
    note C_, 6
    octave 4
    note G_, 6
    octave 5
    note C_, 4
    note C#, 6
    note D#, 6
    note C#, 4
    note C_, 6
    octave 4
    note G_, 6
    octave 5
    note C_, 4
    note C#, 6
    note D#, 6
    note F_, 4
Music_HoennWildBattle_Ch2_loop:
    intensity $C5
    octave 4
    note C_, 6
    note D_, 6
    note G_, 4
    intensity $C2
    note F_, 2
    note E_, 2
    note D_, 2
    note C_, 2
    note E_, 2
    note D_, 2
    note C_, 2
    octave 3
    note G_, 2
    intensity $B8
    note A#, 8
    octave 4
    note D_, 8
    note F_, 6
    intensity $C2
    note A_, 4
    note A_, 2
    note G_, 2
    note E_, 2
    intensity $C5
    note C_, 6
    note D_, 6
    note G_, 4
    intensity $C2
    note F_, 2
    note E_, 2
    note D_, 2
    note F_, 4
    note E_, 2
    note D_, 2
    note C_, 2
    intensity $B8
    octave 3
    note A#, 8
    octave 4
    note D_, 8
    note F_, 6
    intensity $C2
    note A#, 4
    note A_, 2
    note G_, 2
    note F_, 2
    intensity $B8
    note E_, 12
    note C_, 4
    note G_, 16
    note D_, 12
    octave 3
    note A#, 4
    octave 4
    note F_, 16
    note E_, 12
    note C_, 4
    note G_, 16
    intensity $A8
    note G_, 16
    intensity $A7
    note G_, 10
    intensity $C2
    note G_, 2
    note A_, 2
    note __, 2
    intensity $C7
    note A#, 16
    note A#, 4
    note A_, 4
    note G_, 4
    note F_, 4
    note E_, 12
    note C_, 4
    note G_, 10
    intensity $C2
    note G_, 2
    octave 5
    note C_, 2
    note __, 2
    intensity $C7
    note C#, 14
    note C_, 2
    note C#, 4
    note C_, 4
    octave 4
    note A#, 4
    note G#, 2
    note A#, 2
    note G#, 10
    note A#, 2
    note G#, 2
    note F_, 2
    note G_, 8
    octave 5
    note C_, 8
    intensity $C2
    note C_, 6
    octave 4
    note G_, 6
    octave 5
    note C_, 4
    note C#, 4
    note C_, 4
    octave 4
    note A#, 4
    octave 5
    note C#, 4
    note C_, 6
    octave 4
    note G_, 6
    octave 5
    note C_, 4
    note E_, 6
    note C_, 4
    note C#, 2
    octave 4
    note B_, 4
    dutycycle 0
    octave 5
    note C_, 6
    octave 4
    note G_, 6
    octave 5
    note C_, 4
    note C#, 6
    note D#, 6
    note C#, 4
    note C_, 6
    octave 4
    note G_, 6
    octave 5
    note C_, 4
    note C#, 6
    note D#, 6
    intensity $C7
    note F_, 4
    dutycycle 1
    loopchannel 0, Music_HoennWildBattle_Ch2_loop
 
Music_HoennWildBattle_Ch3:
    notetype $C, $14
    octave 2
    note C_, 2
    note G_, 2
    note C_, 2
    note G_, 2
    note C_, 2
    note G_, 2
    note C_, 2
    note G_, 2
    octave 1
    note A#, 2
    octave 2
    note F_, 2
    octave 1
    note A#, 2
    octave 2
    note F_, 2
    octave 1
    note A#, 2
    octave 2
    note F_, 2
    octave 1
    note A#, 2
    octave 2
    note F_, 2
    note C_, 2
    octave 1
    note G_, 2
    octave 2
    note C_, 2
    note C#, 4
    note C_, 2
    octave 1
    note A#, 2
    octave 2
    note C#, 2
    note C_, 2
    octave 1
    note G_, 2
    octave 2
    note C_, 2
    note E_, 4
    note C_, 2
    note C#, 2
    octave 1
    note B_, 2
    octave 2
    note C_, 2
    octave 1
    note G_, 2
    octave 2
    note C_, 2
    note C#, 4
    note C_, 2
    octave 1
    note A#, 2
    octave 2
    note C#, 2
    note C_, 2
    octave 1
    note G_, 2
    octave 2
    note C_, 2
    note E_, 4
    note C_, 2
    note C#, 2
    octave 1
    note B_, 2
    octave 2
    note C_, 2
    octave 1
    note G_, 2
    octave 2
    note C_, 2
    note C#, 4
    note C_, 2
    octave 1
    note A#, 2
    octave 2
    note C#, 2
    note C_, 2
    octave 1
    note G_, 2
    octave 2
    note C_, 2
    note E_, 4
    note C_, 2
    note C#, 2
    octave 1
    note B_, 2
    octave 2
    note C_, 2
    octave 1
    note G_, 2
    octave 2
    note C_, 2
    note C#, 4
    note C_, 2
    octave 1
    note A#, 2
    octave 2
    note C#, 2
    note C_, 2
    note F_, 2
    note C_, 2
    note F_, 4
    octave 1
    note G_, 2
    note A#, 2
    note B_, 2
Music_HoennWildBattle_Ch3_loop:
    octave 2
    note C_, 2
    note G_, 2
    note C_, 2
    note G_, 2
    note C_, 2
    note G_, 2
    note C_, 2
    note G_, 2
    note C_, 2
    note G_, 2
    note C_, 2
    note G_, 4
    note C_, 2
    note E_, 2
    note G_, 2
    octave 1
    note A#, 2
    octave 2
    note F_, 2
    octave 1
    note A#, 2
    octave 2
    note F_, 2
    octave 1
    note A#, 2
    octave 2
    note F_, 2
    octave 1
    note A#, 2
    octave 2
    note F_, 2
    octave 1
    note A#, 2
    octave 2
    note F_, 2
    octave 1
    note A#, 2
    octave 2
    note F_, 4
    note F_, 2
    octave 1
    note A#, 2
    octave 2
    note F_, 2
    note C_, 2
    note G_, 2
    note C_, 2
    note G_, 2
    note C_, 2
    note G_, 2
    note C_, 2
    note G_, 2
    note C_, 2
    note G_, 2
    note C_, 2
    note G_, 4
    note C_, 2
    note G_, 2
    note C_, 2
    octave 1
    note A#, 2
    octave 2
    note F_, 2
    octave 1
    note A#, 2
    octave 2
    note F_, 2
    octave 1
    note A#, 2
    octave 2
    note F_, 2
    octave 1
    note A#, 2
    octave 2
    note F_, 2
    octave 1
    note A#, 2
    octave 2
    note F_, 2
    octave 1
    note A#, 2
    octave 2
    note F_, 4
    note F_, 2
    octave 1
    note A#, 2
    octave 2
    note F_, 2
    note E_, 2
    note G_, 2
    note C_, 2
    note G_, 2
    note E_, 2
    note G_, 2
    note C_, 2
    note G_, 2
    note C_, 2
    note G_, 2
    note C_, 2
    note G_, 2
    note C_, 2
    note G_, 2
    note C_, 2
    note G_, 2
    note D_, 2
    note F_, 2
    octave 1
    note A#, 2
    octave 2
    note F_, 2
    note D_, 2
    note F_, 2
    octave 1
    note A#, 2
    octave 2
    note F_, 2
    octave 1
    note A#, 2
    octave 2
    note F_, 2
    octave 1
    note A#, 2
    octave 2
    note F_, 4
    note D_, 2
    octave 1
    note A#, 2
    note B_, 2
    octave 2
    note C_, 2
    note E_, 2
    octave 1
    note G_, 2
    octave 2
    note E_, 2
    note C_, 2
    note E_, 2
    octave 1
    note G_, 2
    octave 2
    note E_, 2
    note C_, 2
    note G_, 2
    note C_, 2
    note G_, 2
    note C_, 2
    note E_, 6
    note C_, 2
    note E_, 2
    octave 1
    note G_, 2
    octave 2
    note E_, 2
    note C_, 2
    note E_, 2
    octave 1
    note G_, 2
    octave 2
    note E_, 2
    note C_, 2
    octave 1
    note G_, 2
    octave 2
    note C_, 2
    note G_, 2
    octave 3
    note C_, 2
    octave 2
    note E_, 2
    note G_, 2
    note A_, 2
    note F_, 2
    note A#, 2
    note F_, 2
    note A#, 2
    note F_, 2
    note A#, 2
    note F_, 2
    note A#, 2
    note F_, 2
    note A#, 2
    note F_, 2
    note A#, 2
    note F_, 2
    note A#, 2
    note A_, 2
    note A#, 2
    note G_, 2
    octave 3
    note C_, 2
    octave 2
    note G_, 2
    octave 3
    note C_, 2
    octave 2
    note G_, 2
    octave 3
    note C_, 2
    octave 2
    note G_, 2
    octave 3
    note C_, 2
    octave 2
    note G_, 2
    octave 3
    note C_, 2
    octave 2
    note G_, 2
    octave 3
    note C_, 2
    octave 2
    note G_, 2
    octave 3
    note C_, 2
    octave 2
    note G_, 2
    octave 3
    note C_, 2
    octave 2
    note G#, 2
    octave 3
    note C#, 2
    octave 2
    note G#, 2
    octave 3
    note C#, 2
    octave 2
    note G#, 2
    octave 3
    note C#, 2
    octave 2
    note G#, 2
    octave 3
    note C#, 2
    octave 2
    note G#, 2
    octave 3
    note C#, 2
    octave 2
    note G#, 2
    octave 3
    note C#, 2
    octave 2
    note G#, 2
    octave 3
    note C#, 2
    octave 2
    note G#, 2
    octave 3
    note C#, 2
    octave 2
    note G_, 2
    octave 3
    note C_, 2
    octave 2
    note G_, 2
    octave 3
    note C_, 2
    octave 2
    note G_, 2
    octave 3
    note C_, 2
    octave 2
    note G_, 2
    octave 3
    note C_, 2
    octave 2
    note G_, 2
    octave 3
    note C_, 2
    octave 2
    note G_, 2
    octave 3
    note C_, 2
    octave 2
    note E_, 2
    octave 3
    note C_, 2
    octave 2
    note E_, 2
    octave 3
    note C_, 2
    octave 2
    note C_, 2
    note G_, 2
    note C_, 2
    note G_, 2
    note C_, 2
    note G_, 2
    note C_, 2
    note G_, 2
    note C_, 2
    note G_, 2
    note C_, 2
    note G_, 2
    note C_, 2
    note G_, 2
    note C_, 2
    note G_, 2
    note C_, 2
    note G_, 2
    note C_, 2
    note G_, 2
    note C_, 2
    note G_, 2
    note C_, 2
    note G_, 2
    note C_, 2
    note D#, 2
    note F#, 2
    note G_, 4
    note C#, 2
    note D#, 2
    octave 1
    note B_, 2
    octave 2
    note C_, 2
    note G_, 2
    note C_, 2
    note G_, 2
    note C_, 2
    note G_, 2
    note C_, 2
    note G_, 2
    note C_, 2
    note G_, 2
    note C_, 2
    note G_, 2
    note C_, 2
    note G_, 2
    note C_, 2
    note G_, 2
    note C_, 2
    note G_, 2
    note C_, 2
    note G_, 2
    note C_, 2
    note G_, 2
    note C_, 2
    note G_, 2
    note C_, 2
    note D#, 2
    note F#, 2
    note G_, 4
    note C#, 2
    note D#, 2
    note G_, 2
    loopchannel 0, Music_HoennWildBattle_Ch3_loop
 
Music_HoennWildBattle_Ch4:
    notetype $C
    note __, 16
    togglenoise 3
    note D#, 4
    note D#, 4
    note D#, 4
    note C_, 2
    note C_, 2
    note D#, 4
    note C_, 4
    note D#, 2
    note D#, 2
    note C_, 4
    note D#, 4
    note C_, 4
    note D#, 2
    note D#, 2
    note C_, 4
    note D#, 4
    note C_, 4
    note D#, 2
    note D#, 2
    note C_, 4
    note D#, 4
    note C_, 4
    note D#, 2
    note D#, 2
    note C_, 4
    note D#, 4
    note C_, 4
    note D#, 2
    note D#, 2
    note C_, 4
    note D#, 4
    note C_, 4
    note D#, 2
    note D#, 2
    note C_, 4
    note D#, 4
    note C_, 4
    note D#, 2
    note D#, 2
    note C_, 4
    note D#, 4
    note C_, 4
    note D#, 2
    note D#, 2
    note C_, 4
Music_HoennWildBattle_Ch4_loop:
    note D#, 4
    note C_, 4
    note D#, 2
    note D#, 2
    note C_, 4
    note D#, 4
    note C_, 4
    note D#, 2
    note D#, 2
    note C_, 4
    note D#, 4
    note C_, 4
    note D#, 2
    note D#, 2
    note C_, 4
    note D#, 4
    note C_, 4
    note D#, 2
    note D#, 2
    note C_, 4
    note D#, 4
    note C_, 4
    note D#, 2
    note D#, 2
    note C_, 4
    note D#, 4
    note C_, 4
    note D#, 2
    note D#, 2
    note C_, 4
    note D#, 4
    note C_, 4
    note D#, 2
    note D#, 2
    note C_, 4
    note D#, 4
    note C_, 4
    note D#, 2
    note D#, 2
    note C_, 4
    note D#, 4
    note C_, 4
    note D#, 2
    note D#, 2
    note C_, 4
    note D#, 4
    note C_, 4
    note D#, 2
    note D#, 2
    note C_, 4
    note D#, 4
    note C_, 4
    note D#, 2
    note D#, 2
    note C_, 4
    note D#, 4
    note C_, 4
    note D#, 2
    note D#, 2
    note C_, 4
    note D#, 4
    note C_, 4
    note D#, 2
    note D#, 2
    note C_, 4
    note D#, 4
    note C_, 4
    note D#, 2
    note D#, 2
    note C_, 4
    note D#, 4
    note C_, 4
    note D#, 2
    note D#, 2
    note C_, 4
    note D#, 4
    note C_, 4
    note C_, 2
    note D#, 2
    note C_, 2
    note C_, 2
    note D#, 4
    note C_, 4
    note D#, 2
    note D#, 2
    note C_, 4
    note D#, 4
    note C_, 4
    note D#, 2
    note D#, 2
    note C_, 4
    note D#, 4
    note C_, 4
    note D#, 2
    note D#, 2
    note C_, 4
    note D#, 4
    note C_, 4
    note D#, 2
    note D#, 2
    note C_, 4
    note D#, 4
    note C_, 4
    note D#, 2
    note D#, 2
    note C_, 4
    note D#, 4
    note C_, 4
    note D#, 2
    note D#, 2
    note C_, 4
    note D#, 4
    note C_, 4
    note D#, 2
    note D#, 2
    note C_, 4
    note D#, 4
    note C_, 4
    note D#, 2
    note D#, 2
    note C_, 4
    note D#, 4
    note C_, 4
    note D#, 2
    note D#, 2
    note C_, 4
    note D#, 4
    note C_, 4
    note D#, 2
    note D#, 2
    note C_, 4
    note D#, 4
    note C_, 4
    note D#, 2
    note D#, 2
    note C_, 4
    note D#, 4
    note C_, 4
    note D#, 2
    note D#, 2
    note C_, 4
    note D#, 4
    note C_, 4
    note D#, 2
    note D#, 2
    note C_, 4
    note D#, 4
    note C_, 4
    note D#, 2
    note D#, 2
    note C_, 4
    note D#, 4
    note C_, 4
    note D#, 2
    note D#, 2
    note C_, 4
    note D#, 4
    note C_, 4
    note D#, 2
    note D#, 2
    note C_, 4
    loopchannel 0, Music_HoennWildBattle_Ch4_loop
