Music_HoennTrainerBattle:
	musicheader 4, 1, Music_HoennTrainerBattle_Ch1
	musicheader 1, 2, Music_HoennTrainerBattle_Ch2
	musicheader 1, 3, Music_HoennTrainerBattle_Ch3
	musicheader 1, 4, Music_HoennTrainerBattle_Ch4

Music_HoennTrainerBattle_Ch1:
	tempo $60
	volume $77
	stereopanning $77
	notetype $C, $00
	note __, 4
	dutycycle 1
	tone $0002
	intensity $C2
	octave 4
	note C_, 1
	note C#, 1
	note D_, 1
	note D#, 1
	note E_, 1
	note F_, 1
	note F#, 1
	note G_, 1
	note C_, 1
	note C#, 1
	note D_, 1
	note D#, 1
	note E_, 1
	note F_, 1
	note F#, 1
	note G_, 1
	note C_, 1
	note C#, 1
	note D_, 1
	note D#, 1
	note E_, 1
	note F_, 1
	note F#, 1
	note G_, 5
	octave 3
	note G_, 6
	note A#, 6
	note G#, 4
	note G_, 2
	note G#, 4
	note A#, 6
	note C#, 4
	note G_, 6
	note A#, 6
	note G#, 4
	note G_, 2
	note G#, 4
	note A#, 6
	octave 4
	note C#, 4
	dutycycle 2
	octave 3
	note G_, 2
	note C_, 2
	note F_, 2
	note A#, 2
	note G_, 2
	note C#, 2
	note G#, 2
	note C_, 2
	note G_, 2
	note C#, 2
	note F_, 2
	note A#, 2
	note C_, 2
	note G_, 2
	note C#, 2
	note F_, 2
	note G_, 2
	note C_, 2
	note F_, 2
	note A#, 2
	note G_, 2
	note C#, 2
	note G#, 2
	note C_, 2
	note G_, 2
	note C#, 2
	note F_, 2
	note A#, 2
	note F_, 2
	octave 4
	note C_, 2
	note C#, 4
Music_HoennTrainerBattle_Ch1_loop:
	dutycycle 1
	intensity $B7
	vibrato $06, $13
	octave 3
	note C_, 6
	note G_, 6
	note F_, 4
	note E_, 2
	note F_, 2
	note E_, 2
	note D_, 2
	note C_, 2
	note E_, 2
	note A#, 2
	octave 4
	note C_, 2
	note C#, 16
	note C#, 8
	octave 3
	note A#, 8
	note C_, 6
	note G_, 6
	note F_, 4
	note E_, 2
	note F_, 2
	note E_, 2
	note D_, 2
	note C_, 2
	note D_, 2
	note A#, 2
	octave 4
	note C_, 2
	note C#, 12
	note C#, 2
	note C_, 2
	note C#, 8
	note D#, 8
	note C_, 6
	octave 3
	note A#, 6
	octave 4
	note D_, 4
	note C_, 16
	intensity $A7
	octave 2
	note E_, 8
	note F_, 6
	note A_, 2
	note A#, 6
	octave 3
	note D_, 6
	octave 2
	note B_, 4
	octave 3
	note C_, 6
	octave 2
	note G_, 6
	note F_, 4
	note E_, 16
	note E_, 8
	note F_, 8
	note A#, 6
	note F_, 4
	octave 3
	note D_, 2
	octave 2
	note A#, 2
	note A_, 2
	octave 3
	note C_, 12
	note C_, 4
	note E_, 16
	note C_, 14
	note E_, 2
	note F_, 16
	note F_, 12
	note E_, 2
	note D_, 2
	note E_, 10
	dutycycle 0
	intensity $C2
	note G_, 1
	note __, 1
	note G_, 1
	note __, 1
	note G_, 1
	note __, 1
	note G_, 1
	note __, 1
	note G_, 1
	note __, 1
	note G_, 1
	note __, 1
	note G_, 4
	note G_, 1
	note __, 1
	note G_, 1
	note __, 1
	note G_, 1
	note __, 1
	note F_, 1
	note __, 1
	note F_, 1
	note __, 1
	note F_, 1
	note __, 1
	note F_, 4
	note F_, 1
	note __, 1
	note F_, 1
	note __, 1
	note F_, 1
	note __, 1
	note A#, 1
	note __, 1
	note A#, 1
	note __, 1
	note A#, 1
	note __, 1
	note A#, 4
	note A#, 1
	note __, 1
	note A#, 1
	note __, 1
	note A#, 1
	note __, 1
	note G_, 1
	note __, 1
	note G_, 1
	note __, 1
	note G_, 1
	note __, 1
	note G_, 4
	note G_, 1
	note __, 1
	note G_, 1
	note __, 1
	note G_, 1
	note __, 1
	note G_, 1
	note __, 1
	note G_, 1
	note __, 1
	note G_, 1
	note __, 1
	note G_, 4
	note G_, 1
	note __, 1
	note G_, 1
	note __, 1
	note G_, 1
	note __, 1
	note F_, 1
	note __, 1
	note F_, 1
	note __, 1
	note F_, 1
	note __, 1
	note F_, 4
	note F_, 1
	note __, 1
	note F_, 1
	note __, 1
	note F_, 1
	note __, 1
	note A#, 1
	note __, 1
	note A#, 1
	note __, 1
	note A#, 1
	note __, 1
	note A#, 4
	note A#, 1
	note __, 1
	note A#, 1
	note __, 1
	note A#, 1
	note __, 1
	note G_, 1
	note __, 1
	note G_, 1
	note __, 1
	note G_, 1
	note __, 1
	note G_, 4
	note G_, 1
	note __, 1
	note G_, 1
	note __, 1
	note G_, 1
	note __, 1
	dutycycle 1
	intensity $C6
	octave 5
	note C_, 8
	octave 3
	note C_, 8
	octave 4
	note G_, 8
	octave 3
	note C#, 8
	octave 4
	note C_, 8
	octave 2
	note C_, 8
	octave 3
	note G_, 8
	octave 2
	note C#, 8
	note __, 16
	note __, 16
	note __, 16
	note __, 16
	note __, 16
	note __, 16
	intensity $A8
	note F_, 16
	note A#, 16
	octave 3
	note D_, 16
	note F_, 14
	note F_, 2
	note G_, 16
	note G_, 16
	octave 4
	note C_, 16
	note C_, 16
	dutycycle 2
	intensity $C1
	octave 5
	note F_, 2
	note C_, 2
	note F_, 2
	note A_, 2
	octave 6
	note C_, 2
	octave 5
	note A_, 2
	note F_, 2
	note C_, 2
	note F_, 2
	note C_, 2
	note F_, 2
	note A_, 2
	octave 6
	note C_, 2
	octave 5
	note A_, 2
	note F_, 2
	note C_, 2
	note E_, 2
	note C_, 2
	note E_, 2
	note G_, 2
	octave 6
	note C_, 2
	octave 5
	note G_, 2
	note E_, 2
	note C_, 2
	note E_, 2
	note C_, 2
	note E_, 2
	note G_, 2
	octave 6
	note C_, 2
	octave 5
	note G_, 2
	note E_, 2
	note C_, 2
	note F_, 2
	note C_, 2
	note F_, 2
	note A_, 2
	octave 6
	note C_, 2
	octave 5
	note A_, 2
	note F_, 2
	note C_, 2
	note F_, 2
	note C_, 2
	note F_, 2
	note A_, 2
	octave 6
	note C_, 2
	octave 5
	note A_, 2
	note F_, 2
	note C_, 2
	note E_, 2
	note C_, 2
	note E_, 2
	note G_, 2
	octave 6
	note C_, 2
	octave 5
	note G_, 2
	note E_, 2
	note C_, 2
	note E_, 2
	note C_, 2
	note E_, 2
	note G_, 2
	octave 6
	note C_, 2
	octave 5
	note G_, 2
	note E_, 2
	note C_, 2
	intensity $C2
	octave 4
	note G_, 6
	note G#, 6
	octave 3
	note G_, 4
	octave 4
	note E_, 6
	note F_, 6
	octave 3
	note A#, 4
	octave 4
	note G_, 6
	note G#, 6
	octave 3
	note G_, 4
	octave 4
	note E_, 6
	note F_, 6
	note G#, 4
	note G_, 6
	note G#, 6
	octave 3
	note G_, 4
	octave 4
	note E_, 6
	note F_, 6
	octave 3
	note G_, 4
	octave 4
	note G_, 6
	note G#, 6
	note C_, 4
	note G_, 6
	note G#, 6
	note F_, 4
	loopchannel 0, Music_HoennTrainerBattle_Ch1_loop

Music_HoennTrainerBattle_Ch2:
	dutycycle 1
	tone $0001
	octave 4
	notetype $C, $D2
	note G_, 2
	note C_, 1
	octave 5
	note C_, 1
	octave 4
	note G_, 2
	note C_, 1
	octave 5
	note C_, 1
	octave 4
	note G_, 2
	note C_, 1
	octave 5
	note C_, 1
	octave 4
	note G_, 2
	note C_, 1
	octave 5
	note C_, 1
	octave 4
	note F_, 2
	octave 3
	note A#, 1
	octave 4
	note A#, 1
	note F_, 2
	octave 3
	note A#, 1
	octave 4
	note A#, 1
	note F_, 2
	octave 3
	note A#, 1
	octave 4
	note A#, 1
	note F_, 2
	octave 3
	note A#, 1
	octave 4
	note F#, 1
	intensity $D3
	vibrato $0A, $23
	note C_, 6
	note D#, 6
	note C#, 4
	note C_, 2
	note C#, 4
	note D#, 6
	octave 3
	note G#, 4
	octave 4
	note C_, 6
	note D#, 6
	note C#, 4
	note C_, 2
	note C#, 4
	note D#, 6
	note G#, 4
	octave 5
	note C_, 6
	note D#, 6
	note C#, 4
	note C_, 2
	note C#, 4
	note D#, 6
	note C#, 4
	note C_, 6
	note D#, 6
	note C#, 4
	note C_, 2
	note C#, 4
	note D#, 6
	note G_, 4
Music_HoennTrainerBattle_Ch2_loop:
	intensity $D7
	octave 4
	note C_, 8
	octave 3
	note A#, 8
	octave 4
	note D_, 6
	octave 3
	note G_, 4
	note G_, 2
	octave 4
	note D_, 2
	note G_, 2
	intensity $C8
	note G#, 12
	intensity $D7
	note G#, 2
	note G_, 2
	note F_, 8
	note C#, 8
	dutycycle 0
	note C_, 8
	octave 3
	note A#, 7
	octave 4
	note C_, 1
	note D_, 6
	octave 3
	note G_, 4
	note G_, 2
	octave 4
	note D_, 2
	note G_, 2
	intensity $C8
	note G#, 12
	intensity $D7
	note G#, 2
	note G_, 2
	note A#, 6
	note G#, 4
	note G_, 2
	note F_, 2
	note G#, 2
	intensity $C8
	note G_, 10
	intensity $D7
	note F_, 2
	note G_, 2
	note F_, 2
	note E_, 16
	vibrato $0A, $14
	dutycycle 1
	octave 2
	note A#, 8
	octave 3
	note D_, 8
	note F_, 6
	note A#, 4
	note A_, 2
	note G_, 2
	note F_, 2
	note E_, 12
	note C_, 4
	note G_, 16
	octave 2
	note A#, 8
	octave 3
	note D_, 8
	note F_, 6
	note A#, 4
	note F_, 2
	note A#, 2
	octave 4
	note D_, 2
	note E_, 12
	note G_, 4
	octave 5
	note C_, 16
	octave 4
	note C_, 6
	octave 3
	note G_, 6
	octave 4
	note C_, 2
	note E_, 2
	note F_, 6
	octave 3
	note A#, 4
	octave 4
	note D_, 6
	note F_, 6
	note A#, 4
	note A_, 2
	note G_, 2
	note F_, 2
	note E_, 8
	intensity $E7
	note C_, 8
	note C_, 6
	note G_, 6
	note F_, 2
	note E_, 2
	note D_, 6
	note A#, 10
	note F_, 6
	note A#, 4
	note A_, 2
	note G_, 2
	note F_, 2
	note E_, 6
	note C_, 10
	octave 5
	note C_, 6
	octave 4
	note G_, 6
	octave 5
	note C_, 2
	note E_, 2
	note F_, 6
	octave 4
	note A#, 4
	octave 5
	note D_, 6
	note F_, 6
	note A#, 4
	note A_, 2
	note G_, 2
	note F_, 2
	note E_, 6
	note C_, 6
	note G_, 4
	intensity $D2
	note C_, 6
	note C#, 6
	octave 3
	note C_, 4
	octave 4
	note G_, 6
	note G#, 6
	octave 3
	note C#, 4
	octave 4
	note C_, 6
	note C#, 6
	octave 2
	note C_, 4
	octave 3
	note G_, 6
	note G#, 6
	octave 2
	note C#, 4
	intensity $E8
	octave 3
	note C_, 16
	octave 2
	note C_, 14
	octave 3
	note C_, 2
	note C#, 16
	octave 2
	note C#, 14
	octave 3
	note C#, 2
	note C_, 16
	octave 2
	note C_, 14
	octave 3
	note C_, 2
	intensity $C8
	octave 2
	note A#, 16
	octave 3
	note D_, 16
	note F_, 16
	note A#, 14
	octave 4
	note D_, 2
	vibrato $0A, $23
	note E_, 16
	vibrato $00, $23
	note E_, 16
	octave 3
	vibrato $0A, $23
	note E_, 16
	vibrato $00, $23
	note E_, 16
	vibrato $0A, $23
	intensity $E6
	note C_, 4
	note F_, 6
	note G_, 6
	note A#, 8
	note A_, 8
	note G_, 6
	note F_, 2
	note E_, 2
	note D_, 2
	note E_, 2
	note F_, 2
	note G_, 16
	note C_, 4
	note F_, 6
	note G_, 6
	octave 4
	note C_, 8
	note D_, 8
	note E_, 6
	note D_, 2
	note C_, 2
	octave 3
	note A#, 2
	note A_, 2
	note G_, 2
	octave 4
	note C_, 16
	intensity $D3
	note C_, 6
	note C#, 6
	octave 3
	note C_, 4
	note G_, 6
	note G#, 6
	note C#, 4
	octave 4
	note C_, 6
	note C#, 6
	octave 3
	note C_, 4
	note G_, 6
	note G#, 6
	octave 4
	note C#, 4
	octave 5
	note C_, 6
	note C#, 6
	octave 4
	note C_, 4
	note G_, 6
	note G#, 6
	note C#, 4
	octave 5
	note C_, 6
	note C#, 6
	octave 4
	note G_, 4
	octave 5
	note C_, 6
	note C#, 6
	octave 4
	note A#, 4
	loopchannel 0, Music_HoennTrainerBattle_Ch2_loop

Music_HoennTrainerBattle_Ch3:
	octave 4
	notetype $C, $19
	note C_, 1
	octave 3
	note B_, 1
	note A#, 1
	note A_, 1
	note A#, 1
	note A_, 1
	note G#, 1
	note G_, 1
	note G#, 1
	note G_, 1
	note F#, 1
	note F_, 1
	note F#, 1
	note F_, 1
	note E_, 1
	note D#, 1
	note E_, 1
	note D#, 1
	note D_, 1
	note C#, 1
	note D_, 1
	note C#, 1
	note C_, 1
	octave 2
	note B_, 1
	octave 3
	note C_, 1
	octave 2
	note B_, 1
	note A#, 1
	note A_, 1
	note A#, 1
	note A_, 1
	note A#, 1
	note B_, 1
	note C_, 2
	note F#, 2
	note F_, 2
	note D#, 2
	note F_, 2
	note D#, 2
	note D#, 2
	note F_, 2
	note C_, 2
	note F#, 2
	note F_, 2
	note D#, 2
	note F_, 2
	note D#, 2
	note D#, 2
	note C#, 2
	note C_, 2
	note F#, 2
	note F_, 2
	note D#, 2
	note F_, 2
	note D#, 2
	note D#, 2
	note F_, 2
	note C_, 2
	note F#, 2
	note F_, 2
	note D#, 2
	note F_, 2
	note D#, 2
	note D#, 2
	note C#, 2
	note C_, 2
	note F#, 2
	note F_, 2
	note D#, 2
	note F_, 2
	note D#, 2
	note D#, 2
	note F_, 2
	note C_, 2
	note F#, 2
	note F_, 2
	note D#, 2
	note F_, 2
	note D#, 2
	note D#, 2
	note C#, 2
	note C_, 2
	note F#, 2
	note F_, 2
	note D#, 2
	note F_, 2
	note D#, 2
	note D#, 2
	note F_, 2
	note C_, 2
	note F#, 2
	note F_, 2
	note D#, 2
	note F_, 2
	note D#, 2
	note D#, 2
	note C#, 2
Music_HoennTrainerBattle_Ch3_loop:
	note C_, 2
	note G_, 2
	note C_, 2
	note G_, 2
	note C_, 2
	note G_, 2
	note C_, 2
	note G_, 2
	note C_, 2
	note G_, 2
	note C_, 2
	note G_, 2
	note C_, 2
	octave 3
	note C_, 2
	octave 2
	note G_, 2
	note E_, 2
	note C#, 2
	note G#, 2
	note C#, 2
	note G#, 2
	note C#, 2
	note G#, 2
	note C#, 2
	note G#, 2
	note C#, 2
	note G#, 2
	note C#, 2
	note G#, 2
	note C#, 2
	note C#, 2
	note G#, 2
	note F_, 2
	note C_, 2
	note G_, 2
	note C_, 2
	note G_, 2
	note C_, 2
	note G_, 2
	note C_, 2
	note G_, 2
	note C_, 2
	note G_, 2
	octave 3
	note C_, 2
	octave 2
	note G_, 2
	note E_, 2
	note G_, 2
	note E_, 2
	note G_, 2
	note C#, 2
	note G#, 2
	note C#, 2
	note G#, 2
	note C#, 2
	note G#, 2
	note C#, 2
	note G#, 2
	note C#, 2
	note G#, 2
	note C#, 2
	note G#, 2
	note C#, 2
	note G#, 2
	note C#, 2
	note G#, 2
	note C_, 2
	note G_, 2
	note C_, 2
	note G_, 2
	note C_, 2
	note G_, 2
	note C_, 2
	note G_, 2
	note C_, 2
	note G_, 2
	note C_, 2
	note G_, 2
	note C_, 2
	note G_, 2
	note C_, 2
	note G_, 2
	octave 1
	note A#, 2
	octave 2
	note F_, 2
	octave 1
	note A#, 2
	octave 2
	note F_, 2
	octave 1
	note A#, 2
	octave 2
	note F_, 2
	octave 1
	note A#, 2
	octave 2
	note F_, 2
	octave 1
	note A#, 2
	octave 2
	note F_, 2
	octave 1
	note A#, 2
	octave 2
	note F_, 2
	octave 1
	note A#, 2
	octave 2
	note F_, 2
	octave 1
	note A#, 2
	octave 2
	note F_, 2
	note C_, 2
	note G_, 2
	note C_, 2
	note G_, 2
	note C_, 2
	note G_, 2
	note C_, 2
	note G_, 2
	note C_, 2
	note G_, 2
	note C_, 2
	note G_, 2
	note C_, 2
	note G_, 2
	note C_, 2
	note G_, 2
	octave 1
	note A#, 2
	octave 2
	note F_, 2
	octave 1
	note A#, 2
	octave 2
	note F_, 2
	octave 1
	note A#, 2
	octave 2
	note F_, 2
	octave 1
	note A#, 2
	octave 2
	note F_, 2
	octave 1
	note A#, 2
	octave 2
	note F_, 2
	octave 1
	note A#, 2
	octave 2
	note F_, 2
	octave 1
	note A#, 2
	octave 2
	note F_, 2
	octave 1
	note A#, 2
	octave 2
	note F_, 2
	note C_, 2
	note G_, 2
	note C_, 2
	note G_, 2
	note C_, 2
	note G_, 2
	note C_, 2
	note G_, 2
	note C_, 2
	note G_, 2
	note C_, 2
	note G_, 2
	note C_, 2
	note G_, 2
	note C_, 2
	note G_, 2
	note C_, 2
	note E_, 2
	note C_, 2
	note E_, 2
	note C_, 2
	note E_, 2
	note C_, 2
	note E_, 2
	note C_, 2
	note F_, 2
	note C_, 2
	note F_, 2
	note C_, 2
	note F_, 2
	note C_, 2
	note F_, 2
	note C_, 2
	note F_, 2
	note C_, 2
	note F_, 2
	note C_, 2
	note F_, 2
	note C_, 2
	note F_, 2
	note C_, 2
	note G_, 2
	note C_, 2
	note G_, 2
	note C_, 2
	note G_, 2
	note C_, 2
	note G_, 2
	note C_, 2
	note G_, 2
	note C_, 2
	note G_, 2
	note C_, 2
	note G_, 2
	note C_, 2
	note G_, 2
	note C_, 2
	note A#, 2
	note C_, 2
	note A#, 2
	note C_, 2
	note A#, 2
	note C_, 2
	note A#, 2
	note C_, 2
	note F_, 2
	note C_, 2
	note F_, 2
	note C_, 2
	note F_, 2
	note C_, 2
	note F_, 2
	note C_, 2
	note E_, 2
	note C_, 2
	note E_, 2
	note C_, 2
	note E_, 2
	note C_, 2
	note E_, 2
	note C_, 2
	note E_, 2
	note C_, 2
	note E_, 2
	note C_, 2
	note E_, 2
	note C_, 2
	note E_, 2
	note C_, 2
	note F_, 2
	note C_, 2
	note F_, 2
	note C_, 2
	note F_, 2
	note C_, 2
	note F_, 2
	note C_, 2
	note F_, 2
	note C_, 2
	note F_, 2
	note C_, 2
	note F_, 2
	note C_, 2
	note F_, 2
	note C_, 2
	note E_, 2
	note C_, 2
	note E_, 2
	note C_, 2
	note E_, 2
	note C_, 2
	note E_, 2
	note C_, 2
	note G_, 2
	note C_, 2
	note G_, 2
	note C_, 2
	note G_, 2
	note C_, 2
	note G_, 2
	note C_, 2
	note G_, 2
	note C_, 2
	note G_, 2
	note C_, 2
	note G_, 2
	note C_, 2
	note G_, 2
	note C_, 2
	note G_, 2
	note C_, 2
	note G_, 2
	note C_, 2
	note G_, 2
	note C_, 2
	note G_, 2
	note C_, 2
	note G_, 2
	note C_, 2
	note G_, 2
	note C_, 2
	note G_, 2
	note C_, 2
	note G_, 2
	note C_, 2
	note G_, 2
	note C_, 2
	note G_, 2
	note C_, 2
	note G_, 2
	note C_, 2
	note G_, 2
	note C_, 2
	note G_, 2
	note C_, 2
	note G_, 2
	note C_, 2
	note G_, 2
	note C_, 2
	note G_, 2
	note C#, 2
	note G#, 2
	note C#, 2
	note G#, 2
	note C#, 2
	note G#, 2
	note C#, 2
	note G#, 2
	note C#, 2
	note G#, 2
	note C#, 2
	note G#, 2
	note C#, 2
	note G#, 2
	note C#, 2
	note G#, 2
	note C_, 2
	note G_, 2
	note C_, 2
	note G_, 2
	note C_, 2
	note G_, 2
	note C_, 2
	note G_, 2
	note C_, 2
	note G_, 2
	note C_, 2
	note G_, 2
	note C_, 2
	note G_, 2
	note C_, 2
	note G_, 2
	octave 1
	note A#, 2
	octave 2
	note F_, 2
	octave 1
	note A#, 2
	octave 2
	note F_, 2
	octave 1
	note A#, 2
	octave 2
	note F_, 2
	octave 1
	note A#, 2
	octave 2
	note F_, 2
	octave 1
	note A#, 2
	octave 2
	note F_, 2
	octave 1
	note A#, 2
	octave 2
	note F_, 2
	octave 1
	note A#, 2
	octave 2
	note F_, 2
	octave 1
	note A#, 2
	octave 2
	note F_, 2
	octave 1
	note A#, 2
	octave 2
	note F_, 2
	octave 1
	note A#, 2
	octave 2
	note F_, 2
	octave 1
	note A#, 2
	octave 2
	note F_, 2
	octave 1
	note A#, 2
	octave 2
	note F_, 2
	octave 1
	note A#, 2
	octave 2
	note F_, 2
	octave 1
	note A#, 2
	octave 2
	note F_, 2
	octave 1
	note A#, 2
	octave 2
	note F_, 2
	octave 1
	note A#, 2
	octave 2
	note F_, 2
	note C_, 2
	octave 3
	note C_, 2
	octave 2
	note C_, 2
	octave 3
	note C_, 2
	octave 2
	note C_, 2
	octave 3
	note C_, 2
	octave 2
	note C_, 2
	octave 3
	note C_, 2
	octave 2
	note C_, 2
	octave 3
	note C_, 2
	octave 2
	note C_, 2
	octave 3
	note C_, 2
	octave 2
	note C_, 2
	octave 3
	note C_, 2
	octave 2
	note C_, 2
	octave 3
	note C_, 2
	octave 2
	note C_, 2
	note G_, 2
	note C_, 2
	note G_, 2
	note C_, 2
	note G_, 2
	note C_, 2
	note G_, 2
	note C_, 2
	note G_, 2
	octave 3
	note C_, 2
	octave 2
	note G_, 2
	octave 3
	note C_, 2
	octave 2
	note G_, 2
	note F_, 2
	note G_, 2
	note F_, 2
	note A#, 2
	note F_, 2
	note A#, 2
	note F_, 2
	note A#, 2
	note F_, 2
	note A#, 2
	note F_, 2
	note A#, 2
	note F_, 2
	note A#, 2
	note F_, 2
	note A#, 2
	note F_, 2
	note A#, 2
	note C_, 2
	note G_, 2
	note C_, 2
	note G_, 2
	note C_, 2
	note G_, 2
	note C_, 2
	note G_, 2
	note C_, 2
	note G_, 2
	note C_, 2
	note G_, 2
	note C_, 2
	note G_, 2
	note C_, 2
	note G_, 2
	note F_, 2
	note A#, 2
	note F_, 2
	note A#, 2
	note F_, 2
	note A#, 2
	note F_, 2
	note A#, 2
	note F_, 2
	note A#, 2
	note F_, 2
	note A#, 2
	note F_, 2
	note A#, 2
	note F_, 2
	note A#, 2
	note C_, 2
	note G_, 2
	note C_, 2
	note G_, 2
	note C_, 2
	note G_, 2
	note C_, 2
	note G_, 2
	note C_, 2
	note G_, 2
	note C_, 2
	note G_, 2
	note C_, 2
	note G_, 2
	note C_, 2
	note G_, 2
	note C_, 2
	note F#, 2
	note F_, 2
	note D#, 2
	note F_, 2
	note D#, 2
	note D#, 2
	note F_, 2
	note C_, 2
	note F#, 2
	note F_, 2
	note D#, 2
	note F_, 2
	note D#, 2
	note D#, 2
	note C#, 2
	note C_, 2
	note F#, 2
	note F_, 2
	note D#, 2
	note F_, 2
	note D#, 2
	note D#, 2
	note F_, 2
	note C_, 2
	note F#, 2
	note F_, 2
	note D#, 2
	note F_, 2
	note D#, 2
	note D#, 2
	note C#, 2
	note C_, 2
	note F#, 2
	note F_, 2
	note D#, 2
	note F_, 2
	note D#, 2
	note D#, 2
	note F_, 2
	note C_, 2
	note F#, 2
	note F_, 2
	note D#, 2
	note F_, 2
	note D#, 2
	note D#, 2
	note C#, 2
	note C_, 2
	note F#, 2
	note F_, 2
	note D#, 2
	note F_, 2
	note D#, 2
	note D#, 2
	note F_, 2
	note C_, 2
	note F#, 2
	note F_, 2
	note D#, 2
	note G_, 2
	note C#, 2
	note D#, 2
	note C#, 2
	loopchannel 0, Music_HoennTrainerBattle_Ch3_loop

Music_HoennTrainerBattle_Ch4:
	togglenoise 1
	notetype $C
	note A_, 6
	note A_, 6
	note A_, 6
	note A_, 6
	note C_, 4
	note C_, 2
	note D_, 2
	note A_, 4
	note D_, 2
	note A_, 6
	note D_, 4
	note A_, 4
	note D_, 2
	note A_, 6
	note D_, 4
	note A_, 4
	note D_, 2
	note A_, 6
	note D_, 4
	note A_, 4
	note D_, 2
	note A_, 6
	note D_, 2
	note C_, 2
	note A_, 4
	note D_, 2
	note A_, 6
	note D_, 4
	note A_, 4
	note D_, 2
	note A_, 6
	note D_, 2
	note C_, 2
	note A_, 4
	note D_, 2
	note A_, 6
	note D_, 4
	note A_, 4
	note D_, 2
	note A_, 6
	note D_, 2
	note C_, 2
Music_HoennTrainerBattle_Ch4_loop:
	note A_, 4
	note D_, 2
	note A_, 6
	note D_, 4
	note A_, 4
	note D_, 2
	note A_, 6
	note D_, 2
	note C_, 2
	note A_, 4
	note D_, 2
	note A_, 6
	note A_, 6
	note A_, 2
	note D_, 4
	note C_, 4
	note A_, 4
	note A_, 4
	note D_, 2
	note A_, 6
	note D_, 4
	note A_, 4
	note D_, 2
	note A_, 6
	note D_, 2
	note C_, 2
	note A_, 4
	note D_, 2
	note A_, 6
	note A_, 6
	note A_, 2
	note D_, 4
	note C_, 4
	note A_, 4
	note A_, 4
	note D_, 2
	note A_, 6
	note D_, 2
	note C_, 2
	note A_, 4
	note D_, 2
	note A_, 4
	note A_, 2
	note D_, 2
	note D_, 2
	note A_, 4
	note D_, 2
	note A_, 6
	note D_, 4
	note A_, 4
	note D_, 2
	note A_, 6
	note D_, 2
	note C_, 2
	note A_, 4
	note D_, 2
	note A_, 6
	note D_, 4
	note A_, 4
	note D_, 2
	note A_, 6
	note D_, 2
	note C_, 2
	note A_, 4
	note D_, 2
	note A_, 6
	note D_, 4
	note A_, 4
	note D_, 2
	note A_, 6
	note D_, 2
	note C_, 2
	note A_, 4
	note D_, 2
	note A_, 6
	note D_, 4
	note A_, 4
	note D_, 2
	note A_, 6
	note D_, 2
	note C_, 1
	note A_, 1
	note A_, 4
	note D_, 4
	note A_, 2
	note A_, 2
	note D_, 4
	note A_, 4
	note D_, 4
	note A_, 2
	note A_, 2
	note D_, 4
	note A_, 4
	note D_, 4
	note A_, 2
	note A_, 2
	note D_, 4
	note A_, 4
	note D_, 4
	note A_, 2
	note A_, 2
	note D_, 2
	note C_, 2
	note A_, 4
	note D_, 4
	note A_, 2
	note A_, 2
	note D_, 4
	note A_, 4
	note D_, 4
	note A_, 2
	note A_, 2
	note D_, 4
	note A_, 4
	note D_, 4
	note A_, 2
	note A_, 2
	note D_, 4
	note A_, 4
	note D_, 4
	note A_, 2
	note A_, 2
	note D_, 2
	note D_, 2
	note A_, 4
	note D_, 4
	note A_, 2
	note A_, 2
	note D_, 4
	note A_, 4
	note D_, 4
	note A_, 2
	note A_, 2
	note D_, 2
	note C_, 2
	note A_, 4
	note D_, 4
	note A_, 2
	note A_, 2
	note D_, 4
	note A_, 4
	note D_, 2
	note D_, 2
	note A_, 2
	note A_, 2
	note D_, 2
	note D_, 2
	note A_, 2
	note A_, 2
	note D_, 4
	note A_, 4
	note D_, 4
	note A_, 2
	note A_, 2
	note D_, 4
	note A_, 4
	note D_, 4
	note A_, 2
	note A_, 2
	note D_, 4
	note A_, 4
	note D_, 4
	note A_, 2
	note A_, 2
	note D_, 4
	note A_, 4
	note D_, 2
	note D_, 2
	note __, 16
	note __, 16
	note __, 16
	note __, 16
	note __, 16
	note __, 16
	note __, 16
	note __, 16
	note __, 16
	note __, 12
	note D_, 2
	note D_, 2
	note A_, 4
	note D_, 2
	note A_, 6
	note D_, 4
	note A_, 4
	note D_, 2
	note A_, 6
	note D_, 4
	note A_, 4
	note D_, 2
	note A_, 6
	note D_, 4
	note A_, 4
	note F_, 8
	note D_, 2
	note D_, 2
	note A_, 4
	note D_, 2
	note A_, 6
	note D_, 4
	note A_, 4
	note D_, 2
	note A_, 6
	note D_, 4
	note A_, 4
	note D_, 2
	note A_, 6
	note D_, 4
	note A_, 4
	note D_, 2
	note A_, 6
	note D_, 2
	note C_, 2
	note A_, 4
	note D_, 2
	note A_, 6
	note D_, 4
	note A_, 4
	note D_, 2
	note A_, 6
	note D_, 4
	note A_, 4
	note D_, 2
	note A_, 6
	note D_, 2
	note C_, 2
	note A_, 4
	note D_, 2
	note A_, 4
	note A_, 2
	note D_, 2
	note D_, 2
	note A_, 4
	note D_, 2
	note A_, 6
	note D_, 4
	note A_, 4
	note D_, 2
	note A_, 6
	note D_, 4
	note A_, 4
	note D_, 2
	note A_, 6
	note D_, 4
	note A_, 4
	note D_, 2
	note A_, 6
	note D_, 4
	note A_, 4
	note D_, 2
	note A_, 6
	note D_, 4
	note A_, 4
	note D_, 2
	note A_, 6
	note D_, 4
	note A_, 4
	note D_, 2
	note A_, 6
	note D_, 4
	note A_, 4
	note D_, 2
	note D_, 2
	note A_, 4
	note D_, 2
	note D_, 2
	loopchannel 0, Music_HoennTrainerBattle_Ch4_loop