Music_PetalburgCity:
	musicheader 4, 1, Music_PetalburgCity_Ch1
	musicheader 1, 2, Music_PetalburgCity_Ch2
	musicheader 1, 3, Music_PetalburgCity_Ch3
	musicheader 1, 4, Music_PetalburgCity_Ch4


Music_PetalburgCity_Ch1:
	dutycycle $0
	vibrato $12, $24
	tempo 148
	notetype $6, $92
	octave 2
	note __, 16
	note A#, 2
	octave 3
	note D#, 4
	note G_, 2
	octave 2
	note A#, 4
	octave 3
	note D#, 2
	note G_, 2
Music_PetalburgCity_Ch1_loop:
	octave 2
	note G#, 4
	octave 3
	note G#, 4
	note D#, 2
	note G#, 4
	note G#, 2
	note D#, 4
	note G_, 4
	note D#, 2
	note G_, 4
	note G_, 2
	octave 2
	note G#, 4
	octave 3
	note F_, 4
	octave 4
	note C_, 2
	octave 3
	note G#, 4
	note F_, 2
	octave 4
	note C_, 4
	octave 3
	note F_, 4
	note C_, 4
	octave 2
	note G#, 4
	note A#, 4
	octave 3
	note A#, 4
	note F_, 2
	note A#, 4
	note A#, 2
	note F_, 4
	note G#, 4
	note F_, 2
	note G#, 4
	note G#, 2
	octave 2
	note A#, 4
	octave 3
	note D#, 4
	octave 4
	note D#, 2
	octave 3
	note A#, 4
	note G_, 2
	octave 4
	note D#, 4
	octave 3
	note A#, 4
	note G_, 4
	octave 2
	note A#, 4 ;;;;;;;
	note G#, 2
	octave 3
	note D#, 2
	note G#, 4
	note D#, 2
	note G#, 4
	note G#, 2
	note D#, 4
	note G_, 4
	note D#, 2
	note G_, 4
	note G_, 2
	octave 2
	note G#, 4
	octave 3
	note F_, 4
	octave 4
	note C_, 2
	octave 3
	note G#, 4
	note F_, 2
	octave 4
	note C_, 4
	octave 3
	note F_, 4
	note C_, 4
	octave 2
	note G#, 4
	note A#, 2
	octave 3
	note F_, 2
	note A#, 4
	note F_, 2
	note A#, 4
	note A#, 2
	note F_, 4
	note G#, 4
	note C_, 4
	note F_, 4
	note A#, 16
	note D#, 8 ;;;;;
	octave 4
	dutycycle 3
	intensity $90
	note C_, 4
	note C#, 4
	note D#, 6
	intensity $96
	note D#, 14
	intensity $90
	note D#, 4
	note F_, 4
	note F#, 4
	note F_, 6
	intensity $96
	note F_, 14
	intensity $90
	note C_, 4
	note F_, 4
	note C_, 4
	note C#, 6
	intensity $96
	note C#, 14
	intensity $90
	octave 3
	note A#, 4
	octave 4
	note C_, 4
	note C#, 4
	note D#, 4
	intensity $96
	note D#, 4
	intensity $90
	note C#, 4
	intensity $96
	note C#, 4
	intensity $90
	note C_, 4
	octave 3
	note A#, 4
	intensity $96
	note A#, 4
	intensity $90
	note G_, 4 ;;;;;;
	intensity $92
	dutycycle 0
	octave 3
	note D#, 2
	note D#, 4
	note D#, 6
	note D#, 4
	note D#, 2
	note D#, 2
	note G#, 4
	octave 2
	note G#, 2
	octave 3
	note D#, 2
	note G#, 2
	note D#, 2
	note F_, 2
	note F_, 4
	note F_, 6
	note F_, 4
	note C_, 2
	note C_, 2
	note F_, 4
	octave 2
	note A_, 2
	octave 3
	note C_, 2
	note F_, 2
	note C_, 2
	note C#, 4
	note F_, 2
	note C#, 2
	note F_, 2
	note A#, 4
	note F_, 2
	note C#, 4
	note A#, 4
	octave 2
	note A#, 4
	octave 3
	note F_, 4
	note G#, 16
	note A#, 6
	note G#, 6
	note G_, 4
	loopchannel 0, Music_PetalburgCity_Ch1_loop
	
Music_PetalburgCity_Ch2:
	dutycycle $2
	vibrato $12, $15
	tone $0001
	notetype $c, $94
	octave 1
	note G_, 4
	note G#, 4
	note A#, 3
	note G#, 3
	note G_, 2
Music_PetalburgCity_Ch2_loop:
	note G#, 4
	note D#, 4
	note G_, 4
	note D#, 4
	note F_, 4
	note G#, 4
	octave 2
	note C_, 2
	note C_, 2
	octave 1
	note G#, 2
	octave 2
	note C_, 2
	octave 1
	note A#, 4
	note F_, 4
	octave 2
	note C#, 4
	octave 1
	note G#, 4
	note G_, 4
	note A#, 4
	octave 2
	note D#, 2
	octave 1
	note D#, 2
	note A#, 2
	note G_, 2
	note G#, 4
	note D#, 4
	note G_, 4
	note D#, 4
	note F_, 4
	note G#, 4
	octave 2
	note C_, 2
	note C_, 2
	octave 1
	note G#, 2
	octave 2
	note C_, 2
	octave 1
	note A#, 4
	note F_, 4
	note G#, 4
	note F_, 4
	note D#, 8
	note D#, 8
	note G#, 3
	octave 2
	note C_, 3
	note D#, 2
	octave 1
	note G#, 8
	note F_, 3
	note A_, 3
	octave 2
	note C_, 2
	octave 1
	note F_, 8
	note A#, 3
	note F_, 3
	note A#, 2
	note A#, 8
	note A#, 4
	note C#, 4
	note D#, 2
	note F_, 4
	note G_, 2
	note G#, 3
	note G#, 2
	octave 2
	note C_, 1
	octave 1
	note G#, 1
	note D#, 1
	note G#, 2
	note C_, 2
	note D#, 2
	note G#, 2
	note A_, 3
	note A_, 2
	octave 2
	note C_, 1
	octave 1
	note A_, 1
	note F_, 1
	note A_, 2
	note F_, 2
	octave 2
	note C_, 2
	octave 1
	note F_, 2
	note A#, 3
	octave 2
	note F_, 2
	octave 1
	note F_, 1
	note G_, 1
	note G#, 1
	note A#, 2
	note C#, 2
	note F_, 2
	note C#, 2
	note D#, 8
	note D#, 3
	note F_, 3
	note G_, 2
	loopchannel 0, Music_PetalburgCity_Ch2_loop
	
Music_PetalburgCity_Ch3:
	notetype $6, $14
	octave 5
	note D#, 4
	note __, 4
	note F_, 4
	note __, 4
	note G_, 6
	note G#, 6
	note A#, 4
Music_PetalburgCity_Ch3_loop:
	notetype $6, $14
	vibrato $c, $24
	note G#, 4
	note __, 4
	note G#, 2
	note A#, 2
	note G#, 4
	note G_, 4
	note __, 4
	note G_, 2
	note G#, 2
	note G_, 4
	note F_, 16
	note __, 4
	note G#, 4
	octave 6
	note C#, 4
	note C_, 4
	octave 5
	note A#, 4
	note __, 4
	note A#, 2
	octave 6
	note C_, 2
	note C#, 4
	octave 5
	note F_, 4
	note __, 4
	note F_, 2
	note G_, 2
	note G#, 4
	note G_, 12
	note F_, 2
	note __, 2
	note D#, 16
	octave 6
	note C_, 4
	note __, 4
	note C_, 2
	note C#, 2
	note C_, 4
	octave 5
	note A#, 4
	note __, 4
	note A#, 2
	octave 6
	note C_, 2
	octave 5
	note A#, 4
	note G#, 16
	note __, 4
	note F_, 4
	octave 6
	note C_, 4
	note D#, 4
	note C#, 4
	note __, 4
	note C#, 2
	note D#, 2
	note C#, 4
	note C_, 4
	note __, 4
	note C_, 2
	note C#, 2
	note C_, 4
	octave 5
	note A#, 12
	octave 6
	note C_, 2
	note __, 2
	note C#, 8
	vibrato $c, $15
	intensity $24
	note C#, 8
	intensity $22
	octave 3
	note G#, 2
	note __, 4
	octave 2
	note D#, 2
	note __, 4
	note G#, 8
	octave 4
	note C_, 2
	note __, 2
	note C#, 2
	note __, 2
	note D#, 2
	note __, 2
	note C_, 2
	note __, 4
	octave 2
	note F_, 2
	note __, 4
	note A_, 8
	octave 3
	note A_, 2
	note __, 2
	octave 4
	note C_, 2
	note __, 2
	octave 3
	note A_, 2
	note __, 2
	note A#, 2
	note __, 4
	octave 2
	note F_, 2
	note __, 4
	note A#, 8
	octave 3
	note F_, 2
	note __, 2
	note G_, 2
	note __, 2
	note G#, 2
	note __, 2
	note A#, 4
	note __, 4
	note G#, 4
	note __, 4
	note G_, 4
	note F_, 8
	note D#, 4
	intensity $13
	octave 6
	note D#, 16
	intensity $23
	note D#, 4
	intensity $13
	note D#, 4
	note F_, 4
	note F#, 4
	note F_, 16
	intensity $23
	note F_, 4
	intensity $13
	note C_, 4
	note D#, 4
	note F_, 4
	note C#, 16
	intensity $23
	note C#, 4
	intensity $13
	note C#, 4
	note C_, 4
	note C#, 4
	octave 5
	note A#, 4
	note __, 4
	octave 6
	note C_, 4
	note __, 4
	note C#, 6
	note C_, 6
	octave 5
	note A#, 4
	loopchannel 0, Music_PetalburgCity_Ch3_loop
	
Music_PetalburgCity_Ch4:
	togglenoise $3
	notetype $c
	note C#, 4
	note C_, 2
	note C#, 2
Music_PetalburgCity_Ch4_loop_main:
	note G#, 2
	note C#, 2
	note C_, 2
	note C_, 1
	note C_, 1
Music_PetalburgCity_Ch4_loop_1:
	note C#, 2
	note C#, 2
	note C_, 2
	note C#, 1
	note C#, 1
	loopchannel 14, Music_PetalburgCity_Ch4_loop_1
	note B_, 14
	note D#, 1
	note D#, 1
	callchannel Music_PetalburgCity_Ch4_branch_1
	note G_, 1
	note G_, 1
	note E_, 1
	note G_, 1
	note G_, 1
	note G_, 1
	callchannel Music_PetalburgCity_Ch4_branch_1
	note E_, 1
	note G_, 1
	note E_, 1
	note G_, 1
	note G_, 1
	note G_, 1
	callchannel Music_PetalburgCity_Ch4_branch_1
	note E_, 1
	note E_, 1
	note E_, 1
	note G_, 1
	note G_, 1
	note G_, 1
	callchannel Music_PetalburgCity_Ch4_branch_1
	note C_, 1
	note C#, 1
	note C_, 1
	note C#, 1
	note C_, 1
	note C_, 1
Music_PetalburgCity_Ch4_loop_2:
	note D_, 1
	note G_, 1
	note G#, 1
	note G#, 1
	note C_, 1
	note G_, 1
	note G#, 1
	note G#, 1
	loopchannel 6, Music_PetalburgCity_Ch4_loop_2
	note B_, 8
	loopchannel 0, Music_PetalburgCity_Ch4_loop_main
	
Music_PetalburgCity_Ch4_branch_1:
	note G#, 1
	note G_, 1
	note G_, 1
	note G#, 1
	note G_, 1
	note G_, 1
	note G#, 1
	note G_, 1
	note G#, 1
	note G_, 1
	endchannel