Music_Route123:
	musicheader 4, 1, Music_Route123_Ch1
	musicheader 1, 2, Music_Route123_Ch2
	musicheader 1, 3, Music_Route123_Ch3
	musicheader 1, 4, Music_Route123_Ch4

Music_Route123_Ch1:
	tempo $96
	dutycycle 2
	octave 4
	notetype $C, $81
	note F_, 1
	note G_, 1
	note G#, 1
	note A#, 1
	note F_, 1
	note G_, 1
	note G#, 1
	note A#, 1
	note F_, 1
	note G_, 1
	note G#, 1
	note A#, 1
	note F_, 1
	note G_, 1
	note G#, 1
	note A#, 1
	note D#, 1
	note G_, 1
	note A#, 1
	octave 5
	note C#, 1
	octave 4
	note D#, 1
	note G_, 1
	note A#, 1
	octave 5
	note C#, 1
	octave 4
	note D#, 1
	note G_, 1
	note A#, 1
	octave 5
	note C#, 1
	octave 4
	note D#, 1
	note G_, 1
	note A#, 1
	octave 5
	note C#, 1
Music_Route123_Ch1_loop:
Music_Route123_Ch1_loop_1:
	dutycycle 2
	intensity $81
	callchannel Music_Route123_Ch1_branch_1
	callchannel Music_Route123_Ch1_branch_1
	callchannel Music_Route123_Ch1_branch_1
	callchannel Music_Route123_Ch1_branch_1
	dutycycle 0
	intensity $a7
	note D#, 6
	intensity $a2
	note D#, 1
	octave 3
	note A#, 1
	octave 4
	note D#, 2
	intensity $a5
	note A#, 4
	intensity $a2
	note G_, 2
	dutycycle 2
	intensity $81
	callchannel Music_Route123_Ch1_branch_1
	callchannel Music_Route123_Ch1_branch_1
	callchannel Music_Route123_Ch1_branch_1
	callchannel Music_Route123_Ch1_branch_1
	dutycycle 0
	intensity $a7
	note D#, 6
	intensity $a2
	note G_, 1
	note F_, 1
	note G_, 2
	intensity $a5
	note A#, 4
	intensity $a2
	note G_, 2
	intensity $a3
	octave 4
	note F_, 3
	note D#, 3
	note C#, 2
	intensity $a0
	note F_, 4
	intensity $a5
	vibrato $04, $44
	note F_, 4
	intensity $a3
	vibrato $00, $04
	note E_, 3
	note D#, 3
	note C#, 2
	intensity $a0
	note E_, 4
	intensity $a5
	vibrato $04, $44
	note E_, 4
	intensity $a3
	vibrato $00, $04
	note D#, 3
	note C#, 3
	note C_, 2
	intensity $a0
	note D#, 4
	intensity $a5
	vibrato $04, $44
	note D#, 4
	dutycycle 2
	intensity $71
	vibrato $00, $00
	octave 2
	note A#, 1
	octave 3
	note C#, 1
	note F_, 1
	note G_, 1
	intensity $81
	note A#, 1
	octave 4
	note C#, 1
	note F_, 1
	note G_, 1
	intensity $91
	octave 5
	note C_, 1
	octave 4
	note G#, 1
	note F_, 1
	note G#, 1
	intensity $a1
	octave 5
	note F_, 1
	note C_, 1
	octave 4
	note G#, 1
	note F_, 1	
	intensity $b5
	note G_, 8
	octave 3
	note A#, 3
	note A#, 3
	note A#, 2
	octave 4
	note C#, 8
	octave 3
	note F#, 3
	note F#, 3
	note F#, 2
	intensity $91
	octave 4
	note C#, 1
	octave 3
	note A#, 1
	octave 4
	note C#, 1
	octave 3
	note F#, 1
	octave 4
	note C#, 1
	octave 3
	note A#, 1
	octave 4
	note C#, 1
	note F#, 1
	octave 5
	note C#, 1
	note C_, 1
	octave 4
	note A#, 1
	note G#, 1
	note F#, 1
	note C#, 1
	octave 3
	note G#, 1
	note F_, 1
	note C#, 1
	note F_, 1
	note G#, 1
	octave 4
	note C#, 1
	note F_, 1
	note G#, 1
	octave 5
	note C_, 1
	note C#, 1
	note F_, 1
	intensity $81
	note C#, 1
	intensity $71
	note F_, 1
	intensity $61
	note C#, 1
	intensity $51
	note F_, 1
	intensity $41
	note C#, 1
	intensity $31
	note F_, 1
	intensity $21
	vibrato $10, $24
	note C#, 1
	dutycycle 0
	intensity $94
	octave 3
	note G#, 16
	intensity $b4
	note G#, 3
	note D#, 1
	intensity $b7
	octave 4
	note D#, 12
	intensity $94
	octave 3
	note G#, 16
	intensity $b4
	vibrato $00, $00
	note G#, 3
	note E_, 1
	intensity $b7
	vibrato $10, $24
	note B_, 12
	intensity $94
	note G#, 8
	intensity $b4
	vibrato $00, $00
	octave 4
	note D#, 3
	note C_, 1
	intensity $b7
	vibrato $10, $24
	note G#, 4
	intensity $b4
	vibrato $00, $00
	octave 3
	note G#, 3
	note D#, 1
	intensity $b7
	vibrato $10, $24
	octave 4
	note D#, 12
	intensity $94
	octave 3
	note G#, 8
	intensity $b4
	vibrato $00, $00
	note B_, 3
	note G#, 1
	intensity $b7
	vibrato $10, $24
	octave 4
	note E_, 4
	intensity $b4
	vibrato $00, $00
	octave 3
	note G#, 3
	note E_, 1
	intensity $b7
	vibrato $10, $24
	note B_, 12
	vibrato $20, $24
	octave 4
	note D#, 16
	note C_, 16
	octave 3
	intensity $d1
	note A#, 2
	note A#, 4
	note A#, 1
	note A#, 1
	note A#, 2
	note A#, 4
	note A#, 1
	note A#, 1
	note A#, 2
	note A#, 4
	note A#, 1
	note A#, 1
	note A#, 2
	note A#, 4
	note A#, 1
	note A#, 1
	loopchannel 0, Music_Route123_Ch1_loop

Music_Route123_Ch1_branch_1:
	octave 5
	note D#, 1
	note C_, 1
	octave 4
	note G#, 1
	note D#, 1
	endchannel
	
Music_Route123_Ch1_branch_2:
	octave 5
	note D#, 1
	octave 4
	note A#, 1
	note G#, 1
	note D#, 1
	endchannel
	
Music_Route123_Ch1_branch_3:
	octave 4
	note A#, 1
	note G_, 1
	note D#, 1
	octave 3
	note A#, 1
	endchannel

Music_Route123_Ch2:
	octave 4
	notetype $C, $B2
	vibrato $12, $25
	note C#, 6
	note C#, 1
	note C#, 1
	note C#, 2
	note C#, 4
	note C#, 2
	note D#, 2
	note D#, 4
	note D#, 1
	note D#, 1
	note D#, 2
	note D#, 2
	note F_, 2
	note G_, 2
Music_Route123_Ch2_loop:
	dutycycle $3
	octave 3
	intensity $c4
	note G#, 3
	intensity $c2
	note D#, 1
	intensity $c7
	octave 4
	note D#, 6
	intensity $c2
	note C#, 2
	note C_, 2
	octave 3
	note A#, 2
	note G#, 3
	note G_, 1
	intensity $c7
	note D#, 12
	intensity $c4
	note G#, 3
	intensity $c2
	note D#, 1
	intensity $c7
	octave 4
	note D#, 6
	intensity $c2
	note C#, 2
	note C_, 2
	octave 3
	note A#, 2
	note G#, 3
	note A#, 1
	intensity $c0
	note G_, 4
	intensity $c5
	note G_, 6
	intensity $c0
	note D#, 2
	intensity $c5
	note G#, 6
	note G_, 1
	note G#, 1
	note A#, 3
	note G#, 3
	note G_, 2
	note G#, 6
	note G_, 1
	note G#, 1
	note A#, 3
	note G#, 3
	note G_, 2
	note G#, 6
	note D#, 1
	note F_, 1
	note G_, 3
	octave 4
	note D#, 3
	intensity $c2
	note C#, 2
	intensity $c7
	note C#, 8
	note C_, 8
	dutycycle $0
	intensity $d5
	note A#, 6
	note D#, 1
	note F_, 1
	note G_, 3
	note G#, 3
	note D#, 2
	note F#, 6
	note D#, 1
	note F_, 1
	note F#, 3
	note G#, 3
	intensity $d2
	note F#, 2
	intensity $d0
	note F#, 8
	intensity $d5
	note F#, 8
	intensity $d0
	note F_, 8
	intensity $d5
	note F_, 8
	dutycycle 1
	intensity $d4
	octave 3
	note G#, 3
	note D#, 1
	intensity $b0
	octave 4
	note D#, 8
	intensity $b7
	note D#, 10
	callchannel Music_Route123_Ch2_branch_1
	intensity $b4
	note G#, 3
	note E_, 1
	intensity $b0
	note B_, 8
	intensity $b7
	note B_, 10
	callchannel Music_Route123_Ch2_branch_2
	intensity $b4
	note G#, 3
	note D#, 1
	octave 4
	intensity $B0
	note D#, 8
	intensity $b7
	note D#, 10
	callchannel Music_Route123_Ch2_branch_1
	intensity $b4
	octave 3
	note G#, 3
	note E_, 1
	intensity $b0
	note B_, 8
	intensity $b7
	note B_, 10
	callchannel Music_Route123_Ch2_branch_2
	intensity $b4
	note A#, 3
	octave 4
	note C_, 1
	intensity $b0
	note C#, 6
	intensity $b2
	note C_, 2
	octave 3
	note A#, 2
	note G_, 2
	intensity $b4
	note G#, 3
	note G_, 1
	intensity $b0
	note D#, 4
	intensity $b2
	note D#, 2
	note D#, 2
	note G#, 2
	octave 4
	note D#, 2
	intensity $b0
	note D#, 8
	intensity $b7
	note D#, 8
	intensity $b0
	octave 3
	note A#, 8
	intensity $b7
	note A#, 8
	loopchannel 0, Music_Route123_Ch2_loop
	
Music_Route123_Ch2_branch_1:
	intensity $81
	octave 3
	note G#, 1
	note G#, 1
	note G#, 2
	note D#, 4
	note G#, 1
	note G#, 1
	endchannel
	
Music_Route123_Ch2_branch_2:
	intensity $81
	note B_, 1
	note B_, 1
	note B_, 2
	note E_, 4
	note B_, 1
	note B_, 1
	endchannel

Music_Route123_Ch3:
	octave 3
	notetype $3, $25
	note C#, 16
	note __, 8
	note C#, 3
	note __, 1
	note C#, 3
	note __, 1
	note C#, 7
	note __, 1
	note C#, 15
	note __, 1
	note C#, 8
	note D#, 7
	note __, 1
	note D#, 8
	note __, 8
	note D#, 3
	note __, 1
	note D#, 3
	note __, 1
	note D#, 4
	note __, 4
	note D#, 8
	note F_, 8
	note G_, 8
Music_Route123_Ch3_loop:
	notetype $C, $12
	octave 3
	note G#, 2
	note __, 2
	note D#, 4
	note __, 2
	note G#, 2
	note D#, 2
	note __, 2
	note D#, 2
	note __, 2
	note A#, 4
	note __, 2
	note D#, 2
	note A#, 2
	note D#, 2
	note G#, 2
	note __, 2
	note D#, 4
	note __, 2
	note G#, 2
	note D#, 2
	note __, 2
	note D#, 2
	note __, 2
	note A#, 4
	note __, 2
	note D#, 2
	note A#, 2
	note D#, 2
	octave 4
	note C#, 2
	note __, 1
	octave 3
	note G#, 4
	note __, 1
	note D#, 2
	note __, 1
	octave 4
	note C#, 3
	octave 3
	note G#, 2
	octave 4
	note C#, 2
	note __, 1
	octave 3
	note G#, 4
	note __, 1
	note D#, 2
	note __, 1
	octave 4
	note C#, 3
	octave 3
	note G#, 2
	octave 4
	note C_, 2
	note __, 1
	octave 3
	note G#, 4
	note __, 1
	note D#, 2
	note __, 1
	octave 4
	note C_, 3
	octave 3
	note G#, 2
	note __, 1
	intensity $16
	octave 2
	note A#, 1
	octave 3
	note C#, 1
	note F_, 1
	note G_, 1
	note A#, 1
	octave 4
	note C#, 1
	note F_, 1
	note G_, 1
	octave 5
	note C_, 1
	octave 4
	note G#, 1
	note F_, 1
	note G#, 1
	octave 5
	note F_, 1
	note C_, 1
	octave 4
	note G#, 1
	intensity $12
	octave 3
	note D#, 7
	note __, 1
	note D#, 2
	note __, 1
	note D#, 2
	note __, 1
	note D#, 2
	note F#, 7
	note __, 1
	note F#, 2
	note __, 1
	note F#, 2
	note __, 1
	note F#, 2
	note __, 1
	intensity $16
	octave 4
	note C#, 1
	octave 3
	note A#, 1
	octave 4
	note C#, 1
	octave 3
	note F#, 1
	octave 4
	note C#, 1
	octave 3
	note A#, 1
	octave 4
	note C#, 1
	note F#, 1
	octave 5
	note C#, 1
	note C_, 1
	octave 4
	note A#, 1
	note G#, 1
	note F#, 1
	note C#, 1
	octave 3
	note G#, 1
	note F_, 1
	note C#, 1
	note F_, 1
	note G#, 1
	octave 4
	note C#, 1
	note F_, 1
	note G#, 1
	octave 5
	note C_, 1
	intensity $26
	note C#, 1
	note F_, 1	
	note C#, 1
	note F_, 1
	intensity $36
	note C#, 1
	note F_, 1
	note C#, 1
	note F_, 1
	intensity $12
	octave 3
	note D#, 4
	intensity $22
	note D#, 2
	intensity $32
	note D#, 2
	intensity $12
	octave 2
	note G#, 2
	note __, 1
	note G#, 2
	note __, 1
	note G#, 2
	octave 3
	note D#, 2
	intensity $22
	note D#, 2
	intensity $32
	note D#, 2
	notetype $3, $12
	note C#, 3
	note __, 1
	note C#, 3
	note __, 1
	note C#, 4
	note __, 4
	octave 2
	note G#, 8
	note __, 8
	octave 3
	note C#, 3
	note __, 1
	note C#, 3
	note __, 1
	octave 2
	note B_, 16
	intensity $22
	note B_, 8
	intensity $32
	note B_, 8
	intensity $12
	note E_, 8
	note __, 4
	note E_, 8
	note __, 4
	note E_, 8
	note B_, 8
	intensity $22
	note B_, 8
	intensity $32
	note B_, 8
	intensity $12
	note G#, 3
	note __, 1
	note G#, 3
	note __, 1
	note G#, 3
	note __, 5
	note E_, 8
	note __, 8
	note G#, 3
	note __, 1
	note G#, 3
	note __, 1
	octave 3
	note D#, 8
	intensity $22
	note D#, 8
	intensity $32
	note D#, 8
	intensity $12
	note D#, 3
	note __, 1
	note D#, 3
	note __, 1
	note D#, 3
	note __, 5
	octave 2
	note G#, 8
	note __, 8
	octave 3
	note D#, 3
	note __, 1
	note D#, 3
	note __, 1
	intensity $14
	note G#, 12
	note __, 4
	note G#, 12
	note __, 4
	note G#, 4
	note __, 8
	note D#, 4
	octave 4
	note C_, 12
	note __, 4
	intensity $12
	octave 2
	note B_, 8
	intensity $22
	note B_, 8
	intensity $32
	note B_, 8
	intensity $12
	note G#, 3
	note __, 1
	note G#, 3
	note __, 1
	note G#, 4
	note __, 4
	note E_, 8
	note __, 8
	note G#, 3
	note __, 1
	note G#, 3
	note __, 1
	intensity $14
	note B_, 12
	note __, 4
	note B_, 12
	note __, 4
	octave 3
	note E_, 4
	note __, 8
	octave 2
	note B_, 4
	octave 3
	note G#, 12
	note __, 4
	vibrato $15, $24
	notetype $C, $14
	note G_, 4
	vibrato $00, $24
	intensity $24
	note G_, 2
	intensity $34
	note G_, 2
	note __, 8
	intensity $14
	note G#, 4
	intensity $24
	note G#, 2
	intensity $34
	note G#, 2
	note __, 4
	intensity $12
	note G#, 2
	octave 4
	note C_, 2
	octave 2
	notetype $3, $14
	note G#, 4
	note __, 4
	note G#, 4
	note __, 12
	note G#, 3
	note __, 1
	note G#, 3
	note __, 1
	note G#, 4
	note __, 4
	note G#, 8
	note __, 8
	note G#, 3
	note __, 1
	note G#, 3
	note __, 1
	note G_, 4
	note __, 4
	note G_, 4
	note __, 12
	note G_, 3
	note __, 1
	note G_, 3
	note __, 1
	note G_, 4
	note __, 4
	octave 3
	note D#, 8
	note F_, 8
	note G_, 8
	loopchannel 0, Music_Route123_Ch3_loop

Music_Route123_Ch4:
	togglenoise $1
	notetype $C
	note D_, 2
	note __, 4
	note D_, 1
	note D_, 1
	note D_, 1
	note __, 1
	note D_, 1
	note __, 3
	note D_, 1
	note __, 1
	note D_, 2
	note D_, 2
	note __, 2
	note D_, 1
	note D_, 1
	note D_, 1
	note __, 1
	note D_, 1
	note __, 1
	note D_, 1
	note __, 1
	notetype $4
	note D_, 1
	note D_, 1
	note D_, 1
	note D_, 1
	note D_, 1
	note D_, 1
Music_Route123_Ch4_loop:
	notetype $C
	note F#, 6
	note D_, 1
	note D_, 1
	note D_, 1
	note __, 1
	note D_, 1
	note __, 3
	note D_, 1
	note __, 1
	note D_, 1
	note D_, 1
	note __, 1
	note D_, 1
	note D_, 1
	note __, 1
	note D_, 1
	note __, 3
	note D_, 1
	note __, 1
	note D_, 1
	note __, 1
	note D_, 1
	note __, 1
	note F#, 6
	note D_, 1
	note D_, 1
	note D_, 1
	note __, 1
	note D_, 1
	note __, 3
	note D_, 1
	note __, 1
	note D_, 1
	note D_, 1
	note __, 1
	note D_, 1
	note D_, 1
	note __, 1
	note D_, 1
	note __, 3
	note D_, 1
	note __, 1
	note D_, 1
	note __, 1
	note D_, 1
	note __, 1
	note F#, 2
	note __, 1
	note F#, 2
	note __, 1
	notetype $4
	note D_, 1
	note D_, 1
	note D_, 1
	note D_, 1
	note D_, 1
	note D_, 1
	note F#, 6
	note __, 12
	note D_, 1
	note D_, 1
	note D_, 1
	note D_, 1
	note D_, 1
	note D_, 1
	note F#, 6
	note __, 3
	note F#, 6
	note __, 3
	note D_, 1
	note D_, 1
	note D_, 1
	note D_, 1
	note D_, 1
	note D_, 1
	note F#, 6
	note __, 12
	note D_, 1
	note D_, 1
	note D_, 1
	note D_, 1
	note D_, 1
	note D_, 1
	note F#, 6
	note __, 3
	note F#, 6
	note __, 3
	note D_, 1
	note D_, 1
	note D_, 1
	note D_, 1
	note D_, 1
	note D_, 1
	note F#, 6
	note __, 3
	note F#, 6
	note __, 3
	note F#, 6
	note F#, 6
	notetype $C
	note __, 6
	note F#, 2
	note __, 2
	notetype $4
	note D_, 1
	note D_, 1
	note D_, 1
	note D_, 1
	note D_, 1
	note D_, 1
	note D_, 1
	note D_, 1
	note D_, 1
	note D_, 1
	note D_, 1
	note D_, 1
	note F#, 6
	notetype $C
	note __, 6
	note F#, 2
	note __, 1
	note F#, 2
	note __, 1
	note F#, 2
	note E_, 1
	note F#, 1
	note __, 6
	note F#, 2
	note __, 1
	note F#, 2
	note __, 1
	note F#, 2
	note E_, 1
	note F#, 1
	note __, 6
	note F#, 2
	note __, 1
	note F#, 2
	note __, 1
	note F#, 2
	note F#, 2
	note __, 8
	note __, 2
	note __, 2
	note __, 2
	note D_, 2
	note __, 4
	note D_, 1
	note D_, 1
	note D_, 1
	note __, 1
	note D_, 1
	note __, 3
	note D_, 1
	note __, 1
	note E_, 2
	note __, 4
	note D_, 1
	note D_, 1
	note D_, 1
	note __, 1
	note D_, 1
	note __, 3
	note D_, 1
	note __, 1
	note D_, 2
	note __, 4
	note D_, 1
	note D_, 1
	note D_, 1
	note __, 1
	note D_, 1
	note __, 3
	note D_, 1
	note __, 1
	note E_, 2
	note __, 4
	note D_, 1
	note D_, 1
	note D_, 1
	note __, 1
	note D_, 1
	note __, 3
	note D_, 1
	note __, 1
	note D_, 2
	note __, 4
	note D_, 1
	note D_, 1
	note D_, 1
	note __, 1
	note D_, 1
	note __, 3
	note D_, 1
	note __, 1
	note E_, 2
	note __, 4
	note D_, 1
	note D_, 1
	note D_, 1
	note __, 1
	note D_, 1
	note __, 3
	note D_, 1
	note __, 1
	note D_, 2
	note __, 4
	note D_, 1
	note D_, 1
	note D_, 1
	note __, 1
	note D_, 1
	note __, 3
	note D_, 1
	note __, 1
	note E_, 2
	note __, 4
	note D_, 1
	note D_, 1
	note D_, 1
	note __, 1
	note D_, 1
	note __, 3
	note D_, 1
	note __, 1
	note E_, 2
	note __, 2
	note F#, 2
	note __, 4
	notetype $4
	note D_, 1
	note D_, 1
	note D_, 1
	note D_, 1
	note D_, 1
	note D_, 1
	note __, 6
	note D_, 1
	note D_, 1
	note D_, 1
	note D_, 1
	note D_, 1
	note D_, 1
	note E_, 6
	note __, 6
	note F#, 6
	notetype $C
	note __, 6
	note F#, 2
	note F#, 2
	note D_, 2
	note __, 4
	note D_, 1
	note D_, 1
	note D_, 1
	note __, 1
	note D_, 1
	note __, 3
	note D_, 1
	note __, 1
	note D_, 2
	note __, 4
	note D_, 1
	note D_, 1
	note D_, 1
	note __, 1
	note D_, 1
	note __, 3
	note D_, 1
	note __, 1
	loopchannel 0, Music_Route123_Ch4_loop