Music_TitleScreen:
    musicheader 4, 1, Music_TitleScreen_Ch1
    musicheader 1, 2, Music_TitleScreen_Ch2
    musicheader 1, 3, Music_TitleScreen_Ch3
    musicheader 1, 4, Music_TitleScreen_Ch4
 
Music_TitleScreen_Ch1:
    dutycycle $0
    vibrato $12, $15
    tone $0001
    tempo 128
    notetype $8, $82
    note __, 6
    octave 3
    callchannel Music_TitleScreen_Ch1_branch_5
    octave 4
    note C_, 4
    intensity $87
    octave 3
    note A_, 1
    octave 4
    note D#, 1
    note F_, 6
    intensity $82
    note C_, 2
    octave 3
    note A_, 2
    octave 4
    note C_, 2
    note F_, 2
    note C_, 2
    note F_, 2
    note A_, 4
    intensity $87
    note F_, 1
    note A#, 1
    octave 5
    note C_, 6
    intensity $82
    octave 4
    callchannel Music_TitleScreen_Ch1_branch_5
    octave 5
    note C_, 4
    octave 4
    note A_, 1
    octave 5
    note D#, 1
    note F_, 2
    note C_, 2
    octave 4
    note G_, 2
    intensity $84
    note A#, 6
    note A#, 4
    note A#, 2
    intensity $82
    tempo 136
    note A#, 2
    note A_, 2
    note A#, 2
    tempo 144
    note A#, 2
    note A#, 2
    note B_, 2
    tempo 128
    dutycycle $3
    intensity $72
    callchannel Music_TitleScreen_Ch1_branch_6
    callchannel Music_TitleScreen_Ch1_branch_6
    callchannel Music_TitleScreen_Ch1_branch_7
    callchannel Music_TitleScreen_Ch1_branch_7
    octave 4
    callchannel Music_TitleScreen_Ch1_branch_8
    callchannel Music_TitleScreen_Ch1_branch_8
    octave 3
    note A#, 2
    octave 4
    note D#, 2
    note G_, 2
    note D#, 2
    note G_, 2
    note A#, 2
    octave 5
    note D_, 2
    octave 4
    note A#, 2
    note G_, 2
    note E_, 2
    octave 3
    note B_, 2
    note G#, 2 ;
    callchannel Music_TitleScreen_Ch1_branch_6
    dutycycle $0
    intensity $93
    octave 4
    note A_, 2
    note A_, 1
    note A_, 1
    note A_, 2
    note A_, 4
    note A_, 2
    note A#, 4
    note A#, 2
    note A#, 2
    note A#, 2
    note G_, 2
    dutycycle $3
    intensity $72
    callchannel Music_TitleScreen_Ch1_branch_7
    octave 4
    callchannel Music_TitleScreen_Ch1_branch_8
    callchannel Music_TitleScreen_Ch1_branch_8
    octave 3
    note A#, 2
    octave 4
    note D#, 2
    note G_, 2
    note E_, 2
    note G#, 2
    note B_, 2
    octave 5
    note D_, 2
    octave 4
    note A#, 2
    note G_, 2
    note D#, 2
    octave 3
    note A#, 2
    octave 4
    note C#, 2
    callchannel Music_TitleScreen_Ch1_branch_6
    intensity $95
    note C_, 6
    note F_, 2
    note A_, 2
    note C_, 2
    octave 4
    note C_, 2
    intensity $a1
    note D_, 2
    note C_, 2
    octave 3
    note A#, 2
    octave 4
    note C_, 2
    octave 3
    note A#, 2
    note A_, 2
    note A_, 1
    note A_, 1
    note A_, 2
    note A_, 2
    note A_, 2
    note A_, 2
    octave 2
    intensity $95
    note A_, 2
    note A#, 2
    octave 3
    note C_, 2
    octave 2
    note A#, 2
    note A_, 2
    note G_, 2
    intensity $97
    note F_, 4
    note G_, 4
    note F_, 4
    dutycycle $0
    intensity $92
    octave 4
    note A_, 2
    note A_, 4
    note A_, 4
    note A_, 2
    note A#, 2
    note G_, 4
    note A#, 4
    note A#, 2
    octave 3
    callchannel Music_TitleScreen_Ch1_branch_5
    octave 4
    note C_, 4
    octave 3
    note A_, 2
    octave 4
    intensity $97
    note F_, 6
    intensity $92
    note D#, 4
    octave 3
    note A#, 2
    octave 4
    intensity $97
    note G_, 6
    intensity $92
    note G_, 2
    note F#, 2
    note G_, 6
    note G_, 2
    octave 3
    intensity $90
    note G#, 6
    note F_, 2
    note G#, 2
    octave 4
    note D_, 2
    octave 3
    note B_, 1
    note A#, 5
    note F_, 2
    note A#, 2
    octave 4
    note C_, 2
    note D_, 2
    octave 3
    note A#, 2
    octave 4
    note D_, 2
    note B_, 2
    intensity $90
    note A_, 1
    intensity $70
    note G#, 1
    intensity $50
    note F#, 1
    intensity $30
    note F_, 1
    intensity $91
    dutycycle $2
    octave 2
    note G_, 1
    note A#, 1
    octave 3
    note C_, 1
    note E_, 1
    note G_, 1
    note A#, 1
    octave 4
    note C_, 1
    note E_, 1
    note G_, 1
    note A#, 1
    octave 5
    note C_, 1
    note E_, 1
    notetype $6, $71
    note G#, 1
    callchannel Music_TitleScreen_Ch1_branch_1
    note C_, 1
    note D#, 1
    note G#, 1
    note D#, 1
    note G#, 1
    octave 4
    note D#, 1
    octave 3
    note G#, 1
    octave 4
    note D#, 1
    note G#, 1
    octave 3
    note G#, 1
    octave 4
    note C_, 1
    octave 3
    note G#, 1
    octave 4
    note C_, 1
    note G#, 1
    note C_, 1
    note G#, 1 ;
    pitchoffset 0, A#
    callchannel Music_TitleScreen_Ch1_branch_2
    note F_, 1
    pitchoffset 0, D_
    callchannel Music_TitleScreen_Ch1_branch_1
    pitchoffset 0, C_
    callchannel Music_TitleScreen_Ch1_branch_2
    note A#, 1
    octave 3
    note A#, 1
    octave 4
    note D_, 1
    octave 3
    note A#, 1
    octave 4
    note D_, 1
    note A#, 1
    note D_, 1
    note A#, 1
    octave 5
    note D_, 1
    octave 4
    note D_, 1
    note F_, 1
    note D_, 1
    note F_, 1
    octave 5
    note D_, 1
    octave 4
    note F_, 1
    octave 5
    note D_, 1
    dutycycle $1
    notetype $8, $80
    octave 2
    note C_, 6
    note G_, 6
    note E_, 6
    note A#, 6
    octave 3
    note C_, 12
    octave 2
    note A#, 2
    dutycycle $0
    octave 4
    intensity $a4
    note A#, 4
    intensity $a2
    note A#, 4
    note B_, 2
    octave 5
    intensity $a0
    note C_, 4
    intensity $80
    octave 4
    note B_, 1
    intensity $50
    note A#, 1
    octave 3
    dutycycle $1
    intensity $82
    octave 3
    note F#, 2
    note F#, 2
    note G_, 2
    note E_, 2
    note D#, 2
    note E_, 2
    note A#, 2
    note A_, 2
    note A#, 2
    dutycycle $0
    intensity $b2
    octave 4
    note C_, 3
    note C_, 1
    note C_, 1
    note C_, 1
    tempo 132
    note C_, 2
    note C_, 2
    note C_, 2
    tempo 136
    note __, 2
    note C_, 2
    note C_, 2
    tempo 140
    octave 3
    note A#, 2
    note A#, 2
    note B_, 2
    tempo 144
    intensity $80
    note C_, 12
    note D_, 6
    note D#, 6
    note F_, 2
    intensity $82
    note E_, 2
    note F_, 2
    intensity $80
    note A#, 2
    intensity $82
    note A_, 2
    note A#, 2
    intensity $80
    octave 4
    note F_, 4
    note D#, 4
    note D_, 4
    note F_, 12
    note D#, 6
    note C#, 6
    octave 3
    note G#, 2
    intensity $82
    note G_, 2
    note G#, 2
    intensity $80
    octave 4
    note C_, 2
    intensity $82
    octave 3
    note B_, 2
    octave 4
    note C_, 2
    intensity $80
    note D#, 6
    intensity $70
    note D_, 1
    intensity $60
    note C#, 1
    intensity $50
    note C_, 1
    intensity $40
    octave 3
    note A#, 1
    intensity $30
    note A_, 1
    intensity $20
    note G_, 1
    intensity $80
    note B_, 12
    octave 4
    note C#, 6
    octave 3
    note G#, 4
    octave 4
    note C_, 2
    note D#, 4
    note C#, 4
    note C_, 4
    note C#, 4
    intensity $84
    note C#, 4
    octave 3
    intensity $80
    note A#, 4
    note G#, 2
    intensity $82
    note G_, 2
    note G#, 2
    intensity $80
    note A#, 2
    intensity $82
    note A_, 2
    note A#, 2
    intensity $80
    octave 4
    note C_, 2
    intensity $82
    octave 3
    note B_, 2
    octave 4
    note C_, 2
    intensity $80
    note C#, 2
    intensity $82
    note C_, 2
    note C#, 2
    intensity $90
    note D#, 10
    note F_, 1
    note D#, 1
    note C#, 2
    intensity $92
    note D#, 2
    note C#, 2
    octave 3
    note B_, 2
    note A#, 2
    note G#, 2
    octave 1
Music_TitleScreen_Ch1_loop_1:
    intensity $97
    note F#, 4
    intensity $92
    note F_, 2
    note F#, 4
    note F_, 2
    octave 1
    intensity $97
    note F#, 4
    intensity $92
    note F#, 2
    note F#, 4
    note F_, 2
    loopchannel 7, Music_TitleScreen_Ch1_loop_1
    intensity $97
    note F#, 4
    intensity $92
    note F_, 2
    note F#, 4
    note G#, 2
    intensity $97
    note G#, 4
    intensity $92
    note B_, 2
    intensity $90
    note F_, 2
    note D#, 2
    note C#, 2
    note F#, 6
    note C#, 6
    note E_, 16
    note E_, 16
    note E_, 4
    note __, 12
    intensity $a4
    dutycycle $2
    octave 3
    note F_, 2
    note F#, 2
    note G#, 2
    note A#, 2
    note B_, 2
    octave 4
    note C#, 2 
    intensity $a7
    note F_, 4
    note D#, 4
    note C#, 4
    octave 3
    intensity $a0
    note B_, 6
    intensity $a7
    note B_, 6
    octave 4
    note C#, 6
    octave 3
    note B_, 6
    octave 4
    intensity $a0
    note D_, 6
    intensity $a5
    note D_, 4
    octave 3
    note B_, 2
    dutycycle $0
    octave 2
    callchannel Music_TitleScreen_Ch1_branch_3
    callchannel Music_TitleScreen_Ch1_branch_4
    callchannel Music_TitleScreen_Ch1_branch_3
    intensity $97
    note F#, 2
    intensity $93
    note F_, 2
    note F#, 2
    intensity $97
    note A#, 2
    intensity $93
    note G_, 2
    note E_, 2
    callchannel Music_TitleScreen_Ch1_branch_3
    callchannel Music_TitleScreen_Ch1_branch_4
    intensity $97
    note F#, 2
    intensity $93
    octave 3
    note D_, 2
    note D#, 2
    intensity $97
    note E_, 2
    intensity $93
    octave 2
    note A_, 2
    note G_, 2
    intensity $97
    note F#, 2
    intensity $93
    octave 3
    note D#, 2
    note E_, 2
    intensity $97
    note F_, 2
    intensity $93
    note E_, 2
    note F_, 2
    intensity $94
    octave 4
    note F#, 6
    octave 5
    note C#, 6
    note E_, 6
    note D#, 4
    octave 4
    note G#, 2
    tempo 148
    octave 5
    note C#, 6
    octave 4
    note G#, 6
    note B_, 6
    tempo 156
    note F#, 4
    note C#, 2
    tempo 164
    note A#, 6
    note F#, 6
    note G#, 6
    note C#, 4
    note G#, 2
    tempo 208
    note C#, 6
    octave 2
    note F#, 2
    note F#, 2
    note F#, 2
    intensity $97
    note F#, 12
    endchannel
   
Music_TitleScreen_Ch1_branch_1:
    note D#, 1
    note C_, 1
    note D#, 1
    note C_, 1
    octave 4
    note D#, 1
    octave 5
    note C_, 1
    octave 4
    note D#, 1
    note C_, 1
    octave 5
    note C_, 1
    octave 4
    note G#, 1
    octave 5
    note C_, 1
    octave 4
    note G#, 1
    note C_, 1
    note G#, 1
    note C_, 1
    octave 3
    note G#, 1
    octave 4
    note G#, 1
    note D#, 1
    note G#, 1
    note D#, 1
    octave 3
    note G#, 1
    octave 4
    note D#, 1
    octave 3
    note G#, 1
    note D#, 1
    octave 4
    note D#, 1
    note C_, 1
    note D#, 1
    note C_, 1
    octave 3
    note D#, 1
    octave 4
    note C_, 1
    octave 3
    note D#, 1 ;
    endchannel
   
Music_TitleScreen_Ch1_branch_2:
    octave 4
    note D_, 1
    octave 3
    note D_, 1
    note F_, 1
    note D_, 1
    note F_, 1
    octave 4
    note D_, 1
    octave 3
    note F_, 1
    octave 4
    note D_, 1
    note F_, 1
    octave 3
    note F_, 1
    note A#, 1
    note F_, 1
    note A#, 1
    octave 4
    note F_, 1
    octave 3
    note A#, 1
    octave 4
    note F_, 1
    endchannel
   
Music_TitleScreen_Ch1_branch_3:
    intensity $97
    note F#, 2
    intensity $93
    note B_, 2
    octave 3
    note C_, 2
    intensity $97
    note C#, 2
    intensity $93
    octave 2
    note A_, 2
    note G_, 2
    endchannel
   
Music_TitleScreen_Ch1_branch_4:
    intensity $97
    note F#, 2
    intensity $93
    note B_, 2
    octave 3
    note C_, 2
    intensity $97
    note D_, 2
    intensity $93
    octave 2
    note A_, 2
    note G_, 2
    endchannel
   
Music_TitleScreen_Ch1_branch_5:
    note F_, 2
    note C_, 2
    note F_, 2
    note A_, 2
    note F_, 2
    note A_, 2
    endchannel
   
Music_TitleScreen_Ch1_branch_6:
    octave 4
    note E_, 2
    note E_, 2
    note F_, 2
    note C_, 2
    octave 3
    note A#, 2
    note A_, 2
    endchannel
   
Music_TitleScreen_Ch1_branch_7:
    octave 4
    note E_, 2
    note D_, 2
    note D#, 2
    octave 3
    note A#, 2
    note A_, 2
    note G_, 2
    endchannel
   
Music_TitleScreen_Ch1_branch_8:
    note G#, 2
    note G#, 2
    note A_, 2
    note F_, 2
    note E_, 2
    note D_, 2
    endchannel
   
Music_TitleScreen_Ch2:
    dutycycle $1
    vibrato $0, $25
    tone $0001
    notetype $8, $c2
    octave 3
    note C_, 1
    note E_, 1
    note F_, 1
    note A_, 1
    octave 4
    note C_, 1
    note E_, 1
    intensity $c0
    note F_, 12
    intensity $c5
    note F_, 8
    intensity $c2
    note F_, 2
    note F_, 2
    intensity $c0
    note F_, 12
    intensity $c5
    note F_, 8
    intensity $c2
    note E_, 2
    note F_, 2
    intensity $c0
    note G_, 1
    note F_, 11
    intensity $c5
    note F_, 8
    intensity $c2
    note F_, 2
    note E_, 1
    note F_, 1
    intensity $c5
    note D#, 6
    intensity $c4
    note D#, 4
    note D#, 2
    intensity $c2
    note D#, 2
    note D_, 2
    note D#, 2
    note D#, 2
    note D#, 2
    note E_, 2
    octave 3
    dutycycle $0
    intensity $c0
    note F_, 10
    note A_, 2
    octave 4
    note C_, 12
    intensity $c7
    note C_, 10
    note C#, 1
    note D_, 1
    intensity $c0
    note D#, 8
    note D_, 2
    note C#, 2
    note C_, 12
    intensity $c7
    note C_, 12
    octave 3
    intensity $c4
    note A#, 6
    intensity $c2
    note A#, 2
    note A#, 1
    note A#, 1
    note A#, 2
    octave 4
    note D#, 2
    octave 3
    note A#, 2
    octave 4
    note D#, 2
    note G#, 2
    note E_, 2
    octave 3
    note B_, 2
    vibrato $0, $0
    dutycycle $2
    intensity $d0
    octave 4
    note F#, 1 
    intensity $b0
    note F_, 1
    intensity $90
    note D#, 1
    intensity $70
    note D_, 1
    intensity $51
    note A_, 2
    octave 5
    intensity $d1
    note C#, 2
    note C_, 2
    note C_, 2
    note C_, 2
    octave 4
    note B_, 2
    octave 5
    note C_, 2
    note C_, 2
    note C_, 2
    note C_, 2
    note C_, 2
    note D_, 2
    note C_, 2
    intensity $d3
    octave 4
    note A#, 6
    note B_, 1
    note A#, 3
    note A_, 4
    note A#, 4
    dutycycle $0
    intensity $c3
    note A_, 2
    note A#, 2
    octave 5
    note C_, 2
    octave 4
    note A#, 2
    note A_, 2
    note G_, 2
    intensity $c5
    note F_, 4
    note G_, 4
    note D#, 4
    vibrato $0, $24
    dutycycle $1
    intensity $c7
    octave 3
    note A#, 2
    note G_, 2
    note A#, 2
    octave 4
    note E_, 6
    note D#, 6
    note G_, 2
    note D#, 2
    octave 3
    note A#, 2
    dutycycle $0
    intensity $c0
    note C_, 6
    note F_, 2
    note A_, 4
    octave 4
    note C_, 14
    intensity $c7
    note C_, 8
    intensity $c0
    note C#, 1
    note D_, 1
    note D#, 8
    note D_, 2
    note C#, 2
    note C_, 16
    intensity $c7
    note C_, 8
    intensity $c2
    note D#, 2
    note D#, 4
    note D#, 4
    note D#, 2
    note G_, 2
    note D#, 4
    note G_, 4
    note G_, 2
    dutycycle $1
    intensity $c0
    octave 3
    note F_, 2
    intensity $a0
    note E_, 1
    intensity $80
    note D_, 1
    intensity $60
    note D_, 1
    octave 2
    intensity $40
    note A#, 1
    intensity $c2
    octave 3
    note F_, 2
    note C_, 2
    note A_, 2
    octave 4
    intensity $c0
    note C_, 16
    intensity $c7
    note C_, 8
    intensity $c0
    note D#, 4
    note D_, 4
    note D#, 4
    note F_, 10
    note A_, 1
    note G#, 1
    intensity $c0
    note F_, 16
    intensity $c7
    note F_, 8
    dutycycle $2
    intensity $b0
    note G_, 12
    note G#, 10
    note D#, 16
    intensity $b7
    note D#, 10
    intensity $b0
    note G#, 6
    note A_, 6
    note A#, 10
    note F_, 16
    intensity $b7
    note F_, 10
    intensity $b0
    note A#, 6
    note B_, 6
    dutycycle $0
    intensity $b2
    octave 5
    note C_, 4
    octave 4
    intensity $60
    note B_, 1
    note A#, 1
    octave 2
    intensity $c2
    note C_, 2
    note C_, 2
    note C_, 4
    note C_, 2
    note C_, 4
    octave 1
    note B_, 2
    octave 3
    note C_, 2
    octave 1
    note G_, 3
    octave 3
    note C_, 1
    note C_, 1
    note C_, 1
    note C_, 2
    note C_, 2
    note C_, 4
    octave 4
    note F_, 4
    note F_, 4
    note F#, 2
    note G_, 4
    note C_, 1
    note C_, 1
    note C_, 2
    note C_, 2
    note C_, 4
    note C_, 2
    note C_, 4
    note C_, 2
    note C_, 2
    octave 5
    note C_, 3
    note C_, 1
    note C_, 1
    note C_, 1
    note C_, 2
    note C_, 2
    note C_, 2
    note __, 2
    note C_, 2
    note C_, 2
    octave 4
    note A#, 2
    note A#, 2
    note B_, 2
    octave 5
    dutycycle $3
    intensity $c0
    note C_, 12
    note C#, 1
    note D_, 5
    octave 4
    note A_, 6
    octave 5
    note C_, 8
    octave 4
    note A#, 2
    note A_, 2
    note F_, 6
    note G_, 2
    note G#, 1
    note __, 1
    note A_, 1
    note __, 1
    note A_, 1
    note A#, 11
    octave 5
    note C_, 6
    octave 4
    note G_, 6
    note A_, 1
    note A#, 3
    intensity $a0
    note A_, 1
    intensity $80
    note G#, 1
    intensity $60
    note G_, 1
    intensity $40
    note F#, 1
    intensity $21
    note F_, 2
    intensity $b2
    note C_, 2
    intensity $b0
    note D#, 4
    intensity $80
    note D_, 1
    intensity $50
    note C_, 1
    intensity $b3
    octave 4
    note F_, 2
    note F#, 2
    note G_, 2
    intensity $b0
    note G_, 1
    note G#, 11
    note A#, 6
    note G#, 4
    intensity $b2
    note G#, 2
    intensity $b0
    note G#, 4
    intensity $b2
    note F#, 2
    intensity $b0
    note F_, 4
    intensity $b2
    note F#, 2
    octave 5
    intensity $b0
    note C#, 4
    octave 4
    intensity $b2
    note A#, 2
    intensity $b0
    note G#, 4
    intensity $b2
    note A#, 2
    intensity $b0
    note G#, 10
    intensity $b4
    note G#, 6
    intensity $b2
    note D#, 2
    note D#, 4
    intensity $b0
    note G#, 2
    note F#, 10
    note G#, 1
    note F#, 1
    note F_, 4
    intensity $b7
    note F_, 8
    vibrato $0, $35
    octave 3
    intensity $c0
    note F#, 4
    intensity $c7
    note F#, 6
    intensity $c2
    note A#, 2
    intensity $c0
    octave 4
    note C#, 6
    intensity $c7
    note C#, 6
    octave 3
    intensity $c0
    note G#, 4
    intensity $c7
    note G#, 6
    intensity $c2
    note B_, 2
    intensity $c0
    octave 4
    note E_, 8
    intensity $c2
    note D#, 2
    note D_, 2
    intensity $c0
    note C#, 12
    intensity $c7
    note C#, 12
    intensity $93
    octave 2
    note G#, 2
    note A#, 2
    note B_, 2
    note A#, 2
    note B_, 2
    octave 3
    note C#, 2
    octave 2
    note B_, 2
    octave 3
    note C#, 2
    note D#, 2
    note C#, 2
    note D#, 2
    note F_, 2
    dutycycle $0
    intensity $b4
    note F#, 2
    note C#, 2
    note F_, 2
    intensity $b2
    note F#, 4
    note A#, 2
    intensity $b0
    octave 4
    note C#, 6
    intensity $b7
    note C#, 6
    octave 3
    note G#, 2
    intensity $b2
    note D#, 2
    note G_, 2
    note G#, 4
    octave 4
    note C_, 2
    intensity $b0
    note F_, 8
    intensity $b2
    note D#, 2
    note C_, 2
    intensity $b0
    note C#, 12
    intensity $b7
    note C#, 12
    intensity $93
    octave 2
    note G#, 2
    note A#, 2
    note B_, 2
    note A#, 2
    note B_, 2
    octave 3
    note C#, 2
    octave 2
    note B_, 2
    octave 3
    note C#, 2
    note D_, 2
    note C#, 2
    note F_, 2
    note G#, 2
    intensity $b2
    note F#, 2
    note F_, 2
    note F#, 2
    note A#, 4
    intensity $b0
    octave 4
    note C#, 2
    note F#, 16
    note F#, 16
    intensity $b7
    note F#, 16
    intensity $b4
    vibrato $8, $15
    note C#, 2
    note D#, 2
    note F_, 2
    note F#, 2
    note G#, 2
    note A#, 2
    octave 5
    intensity $b7
    note C#, 4
    octave 4
    note B_, 4
    note A#, 4
    intensity $b0
    note F#, 12
    intensity $b7
    note F#, 12
    intensity $b0
    note G#, 6
    intensity $b7
    note G#, 6
    dutycycle $2
    intensity $c4
    octave 5
    note __, 6
    note C#, 12
    note D_, 12
    note C#, 12
    octave 4
    note A#, 12
    octave 5
    note C#, 12
    note D_, 12
    note E_, 12
    note F_, 6
    note F#, 6
    octave 6
    note C#, 6
    note E_, 6
    note D#, 4
    octave 5
    note G#, 2
    octave 6
    note C#, 6
    octave 5
    note G#, 6
    note B_, 6
    note F#, 4
    note C#, 2
    note A#, 6
    note F#, 6
    note G#, 6
    note C#, 4
    note G#, 2
    note A#, 6
    octave 2
    intensity $b3
    note F#, 2
    note F#, 2
    note F#, 2
    intensity $b5
    note F#, 12
    endchannel
   
Music_TitleScreen_Ch3:
    notetype $4, $16
    octave 4
    note C_, 2
    octave 3
    note A_, 2
    note F_, 2
    note C_, 2
    octave 2
    note A_, 2
    note F#, 2
    note F_, 3
    note __, 1
    note F_, 4
    note __, 8
    note E_, 3
    note __, 1
    note F_, 3
    note __, 1
    note F#, 3
    note __, 1
    note F_, 3
    note __, 1
    note F_, 1
    note __, 1
    note F_, 4
    note __, 2
    note F_, 3
    note __, 1
    note F_, 3
    note __, 1
    callchannel Music_TitleScreen_Ch3_branch_9
    note E_, 3
    note __, 1
    note F_, 3
    note __, 1
    callchannel Music_TitleScreen_Ch3_branch_9
    note F_, 3
    note __, 1
    note E_, 2
    note F_, 2
    note D#, 7
    note __, 1
    note D#, 3
    note __, 1
    note D#, 3
    note __, 1
    note D#, 3
    note __, 1
    note D#, 3
    note __, 1
    note D#, 3
    note __, 1
    note D_, 3
    note __, 1
    note D#, 3
    note __, 1
    note D#, 3
    note __, 1
    note A#, 3
    note __, 1
    octave 3
    note E_, 3
    note __, 1
    octave 2
    callchannel Music_TitleScreen_Ch3_branch_5 ;
    callchannel Music_TitleScreen_Ch3_branch_4 ;
    callchannel Music_TitleScreen_Ch3_branch_6 ;
    octave 2
    callchannel Music_TitleScreen_Ch3_branch_5 ;
    callchannel Music_TitleScreen_Ch3_branch_4 ;
    note D#, 8
    note __, 4
    note D#, 3
    note __, 1
    note D#, 1
    note __, 1
    note D#, 1
    note __, 1
    note D#, 3
    note __, 1 ;
    note D#, 4
    note A#, 4
    octave 3
    note D#, 4
    octave 2
    note E_, 4
    note B_, 4
    octave 3
    note E_, 4 ;
    octave 2
    note F_, 4
    note __, 4
    note F_, 4
    note F_, 4
    octave 3
    note C_, 4
    note F_, 4 ;
    callchannel Music_TitleScreen_Ch3_branch_4 ;
    callchannel Music_TitleScreen_Ch3_branch_6 ;
    octave 2
    callchannel Music_TitleScreen_Ch3_branch_5 ;
    callchannel Music_TitleScreen_Ch3_branch_4 ;
    note D#, 4
    note D_, 4
    note D#, 4
    octave 3
    note C#, 12 ;
    octave 2
    note A#, 8
    note D#, 4
    octave 1
    note A#, 4
    octave 2
    note C#, 4
    note D#, 2
    note E_, 2 ;
    callchannel Music_TitleScreen_Ch3_branch_5 ;
    octave 2
    callchannel Music_TitleScreen_Ch3_branch_7 ;
    octave 2
    note D#, 4
    note __, 4
    note D#, 4
    note E_, 4
    note __, 4
    note E_, 4 ;
    callchannel Music_TitleScreen_Ch3_branch_5 ;
    callchannel Music_TitleScreen_Ch3_branch_4 ;
    note D#, 2
    note __, 2
    note D#, 2
    note __, 6
    note D#, 6
    note __, 2
    note E_, 4
    note D#, 4
    note F_, 8
    note G_, 2
    note __, 6
    note E_, 4 ;
    note F_, 4
    note __, 4
    note F_, 3
    note __, 1
    note F_, 4
    note __, 4
    note F_, 3
    note __, 1 ;
    callchannel Music_TitleScreen_Ch3_branch_7 ;
    octave 2
    note D_, 4
    note __, 4
    note D_, 2
    note __, 2
    note C_, 4
    note __, 4
    note C_, 2
    note __, 2 ;
    note A#, 12
    intensity $26
    note A#, 8
    intensity $16
    note G#, 4 ;
    note D_, 12
    note F_, 4
    note E_, 4
    note D#, 4 ;
    note D_, 12
    octave 1
    note A#, 4
    octave 2
    note D_, 4
    note F_, 4 ;
    octave 3
    note C_, 12
    octave 2
    note A#, 4
    note G#, 4
    note F_, 4 ;
    intensity $14
    note D#, 12
    note C_, 4
    callchannel Music_TitleScreen_Ch3_branch_1
    note G_, 4
    note F_, 4
    note D#, 4
    note A#, 12
    octave 1
    note A_, 4
    octave 2
    pitchoffset 0, D_
    callchannel Music_TitleScreen_Ch3_branch_1
    pitchoffset 0, C_
    note G_, 4
    note A#, 4
    note B_, 4
Music_TitleScreen_Ch3_loop_1:
    note C_, 2
    note __, 4
    note C_, 1
    note __, 1
    note C_, 1
    note __, 1
    note C_, 1
    note __, 1
    note C_, 2
    note __, 2
    note C_, 2
    note __, 2
    note C_, 2
    note __, 2
    note __, 4
    note C_, 2
    note __, 2
    note C_, 2
    note __, 2
    note __, 4
    note C_, 2
    note __, 2
    note C_, 2
    note __, 2
    loopchannel 4, Music_TitleScreen_Ch3_loop_1
    intensity $16
    note D#, 12
    note D#, 12
    note F_, 12
    note C_, 8
    note C#, 4
    note D_, 16
    note C#, 4
    note D_, 4
    octave 1
    note A#, 12
    octave 2
    note C_, 12
    note C#, 12
    note C#, 12
    note C_, 8
    note D#, 4
    octave 1
    note A#, 8
    octave 2
    note C#, 4
    octave 1
    note G#, 16
    note __, 4
    octave 2
    note D#, 4
    note G#, 12
    note F_, 4
    note D#, 4
    note C#, 4
    octave 1
    note B_, 16
    note B_, 4
    octave 2
    note C#, 4
    note F_, 4
    note D#, 4
    note C#, 4
    octave 1
    note G#, 12
    note F#, 6
    note __, 2
    note G#, 2
    note __, 2
    note F#, 6
    note __, 2
    note F#, 2
    note __, 2
    note F#, 6
    note __, 2
    note F#, 2
    note __, 2
    note F#, 6
    note __, 2
    note F#, 2
    note __, 2
    note G#, 6
    note __, 2
    note G#, 2
    note __, 2
    note G#, 4
    octave 2
    note G#, 4
    octave 1
    note G#, 2
    note __, 2
    note G#, 6
    note __, 2
    note G#, 2
    note __, 2
    note G#, 6
    note __, 2
    note G#, 2
    note __, 2
    octave 2
    note C#, 6
    note __, 2
    note C#, 2
    note __, 2
    note C#, 4
    note B_, 4
    note C#, 2
    note __, 2
    note C#, 4
    note B_, 4
    note C#, 2
    note __, 2
    note F_, 4
    note G#, 4
    note C#, 4
    notetype $8, $13
    note __, 12
    octave 5
    note F#, 4
    note A#, 1
    note __, 1
    callchannel Music_TitleScreen_Ch3_branch_2
    octave 5
    note G#, 6
    note __, 4
    note B_, 1
    note __, 1
    octave 6
    note E_, 1
    note F#, 1
    note E_, 1
    note F#, 1
    note E_, 1
    note F#, 1
    note E_, 2
    note D#, 2
    note D_, 2
    callchannel Music_TitleScreen_Ch3_branch_2
    callchannel Music_TitleScreen_Ch3_branch_2
    callchannel Music_TitleScreen_Ch3_branch_3
    note D#, 1
    note __, 1
    note C#, 1
    note __, 1
    note D#, 1
    note __, 1
    note F_, 1
    note __, 13
    octave 5
    note F#, 1
    note __, 1
    note F_, 1
    note F#, 1
    note A#, 1
    note __, 1
    callchannel Music_TitleScreen_Ch3_branch_2
    octave 5
    note G#, 2
    note D#, 1
    note __, 1
    note G_, 1
    note __, 1
    note G#, 2
    note __, 2
    note B_, 2
    octave 6
    note F_, 1
    note F#, 1
    note F_, 1
    note F#, 1
    note F_, 1
    note F#, 1
    note F_, 1
    note __, 1
    note D#, 1
    note __, 1
    note C_, 1
    note __, 1
    callchannel Music_TitleScreen_Ch3_branch_2
    callchannel Music_TitleScreen_Ch3_branch_2
    callchannel Music_TitleScreen_Ch3_branch_3
    note D_, 1
    note __, 1
    note C#, 1
    note __, 1
    note F_, 1
    note __, 1
    note G#, 1
    note __, 13
    intensity $14
    octave 3
    vibrato $8, $15
    note F#, 2
    note F_, 2
    note F#, 2
    note A#, 2
    note __, 2
    octave 4
    note C#, 2
    octave 3
    note B_, 2
    note __, 2
    octave 4
    note C#, 2
    note F#, 6
    octave 5
    note D#, 2
    note __, 2
    note F#, 2
    note B_, 16
    note B_, 2
    octave 2
    note F#, 2
    note F_, 2
    note D#, 2
    note C#, 2
    octave 1
    note B_, 2
    note A#, 2
    note B_, 4
    octave 2
    note D#, 4
    note F#, 4
    note B_, 4
    octave 3
    note D#, 4
    note F#, 4
    note B_, 4
    note F#, 4
    note D_, 4
    octave 4
    note D_, 6
    octave 3
    note B_, 1
    note F#, 1
    note D_, 1
    octave 2
    note B_, 1
    note G#, 1
    note F_, 1
    notetype $4, $14
Music_TitleScreen_Ch3_loop_2:
    octave 2
    note F#, 5
    note __, 1
    note F#, 1
    note __, 1
    note F#, 1
    note __, 1
    note F#, 1
    note __, 1
    note F#, 3
    note __, 1
    note F#, 3
    note __, 1
    note F#, 4
    note __, 4
    note F#, 3
    note __, 1
    note F#, 4
    note __, 4
    note F#, 3
    note __, 1
    note F#, 3
    note __, 1
    loopchannel 7, Music_TitleScreen_Ch3_loop_2
    octave 4
    note F#, 8
    note __, 4
    octave 2
    note F#, 2
    note __, 2
    note F#, 2
    note __, 2
    note F#, 2
    note __, 2
    note F#, 12
    note __, 12
    endchannel
   
Music_TitleScreen_Ch3_branch_1:
    note D#, 4
    note G#, 4
    octave 3
    note D#, 8
    note D_, 8
    note C#, 8
    note C_, 8
    octave 2
    note B_, 8
    note A#, 8
    note G#, 4
    note A#, 4
    note G#, 4
    endchannel
   
Music_TitleScreen_Ch3_branch_2:
    octave 6
    note C#, 1
    note D#, 1
    note C#, 1
    note D#, 1
    note C#, 1
    note D#, 1
    endchannel
   
Music_TitleScreen_Ch3_branch_3:
    note C#, 4
    octave 5
    note B_, 1
    note __, 1
    note A#, 4
    note F#, 1
    note __, 1
    note G#, 1
    note __, 1
    note A#, 1
    note __, 1
    note B_, 1
    note __, 1
    note A#, 1
    note __, 1
    note B_, 1
    note __, 1
    octave 6
    note C#, 1
    note __, 1
    octave 5
    note B_, 1
    note __, 1
    octave 6
    note C#, 1
    note __, 1
    endchannel
   
Music_TitleScreen_Ch3_branch_4:
    octave 2
    note F_, 4
    note __, 4
    note F_, 4
    note E_, 4
    note __, 4
    note E_, 4
    endchannel
   
Music_TitleScreen_Ch3_branch_5:
    note F_, 4
    note __, 4
    note F_, 3
    note __, 1
    note F_, 4
    octave 3
    note C_, 4
    note F_, 4
    endchannel
   
Music_TitleScreen_Ch3_branch_6:
    note D#, 4
    note __, 4
    note D#, 3
    note __, 1
    note D#, 4
    note __, 4
    note D#, 3
    note __, 1
    note D#, 4
    note __, 4
    note D#, 4
    note E_, 4
    note B_, 4
    octave 3
    note E_, 4
    endchannel
   
Music_TitleScreen_Ch3_branch_7:
    note F_, 4
    octave 3
    note C_, 4
    note F_, 4
    octave 2
    note E_, 4
    note __, 4
    note E_, 4
    note D#, 4
    note __, 4
    note D#, 3
    note __, 1
    note D#, 4
    note A#, 4
    octave 3
    note D#, 4
    endchannel
   
Music_TitleScreen_Ch3_branch_9:
    note F#, 3
    note __, 1
    note F_, 4
    note __, 8
    note E_, 3
    note __, 1
    note F_, 3
    note __, 1
    note F#, 3
    note __, 1
    note F_, 3
    note __, 1
    note F_, 1
    note __, 1
    note F_, 4
    note __, 2
    endchannel
   
Music_TitleScreen_Ch4:
    togglenoise $3
    notetype $8
    note C#, 1
    note C#, 1
    note C#, 1
    note C#, 1
    note C#, 1
    note C#, 1
    note B_, 12
    note C#, 6
    note C#, 4
    note C#, 1
    note C#, 1
    note B_, 12
    note C#, 6
    note C#, 4
    note C#, 1
    note C#, 1
    note B_, 12
    note C#, 6
    note C#, 4
    note C#, 1
    note C#, 1
    note C_, 6
    note C_, 4
    note C_, 2
    note C_, 2
    note D#, 1
    note D#, 1
    note D#, 2
    note C_, 2
    callchannel Music_TitleScreen_Ch4_branch_3
    note C_, 4
    note C_, 2
    note D#, 2
    note D#, 1
    note D#, 1
    note D#, 2
    note C_, 2
    note D#, 2
    note C_, 2
    note D#, 2
    callchannel Music_TitleScreen_Ch4_branch_3
    note C_, 2
    note D#, 2
    note C_, 2
    note B_, 4
    note C_, 2
    note C_, 2
    note D#, 2
    note C_, 2
    note D#, 2
    note D#, 1
    note D#, 1
    note D#, 2
    note B_, 16
    note __, 16
    note __, 16
    note B_, 12
    note __, 12
    note C_, 2
    note D#, 1
    note D#, 1
    note D#, 2
    note B_, 6
    note C_, 2
    note D#, 1
    note D#, 1
    note D#, 2
    note B_, 4
    note C_, 2
    note B_, 16
    note __, 16
    note __, 10
    note C#, 1
    note C#, 1
    note C#, 1
    note C#, 1
    note C#, 1
    note C#, 1
    note B_, 6
    note C_, 2
    note C_, 2
    note C_, 2
    note B_, 6
    note D#, 2
    note D#, 1
    note D#, 1
    note D#, 2
    note B_, 6
    note D#, 2
    note D#, 1
    note D#, 1
    note D#, 2
    note B_, 4
    note D#, 2
    note C_, 2
    note C_, 2
    note C_, 2
    note B_, 16
Music_TitleScreen_Ch4_loop_0:
    note __, 16
    loopchannel 5, Music_TitleScreen_Ch4_loop_0
Music_TitleScreen_Ch4_loop_1:
    note B_, 4
    note C#, 1
    note C#, 1
    note C#, 2
    note C#, 2
    note C#, 4
    note C#, 2
    note C#, 4
    note C#, 2
    note C#, 2
    loopchannel 3, Music_TitleScreen_Ch4_loop_1
    note B_, 4
    note C_, 1
    note C_, 1
    note C_, 2
    note C_, 2
    note C_, 2
    note D#, 2
    note C_, 2
    note C_, 2
    note C_, 2
    note C_, 2
    note C_, 2
    note B_, 16
Music_TitleScreen_Ch4_loop_2:
    note __, 16
    loopchannel 11, Music_TitleScreen_Ch4_loop_2
    callchannel Music_TitleScreen_Ch4_branch_1
    callchannel Music_TitleScreen_Ch4_branch_2
    callchannel Music_TitleScreen_Ch4_branch_2
    callchannel Music_TitleScreen_Ch4_branch_1
    callchannel Music_TitleScreen_Ch4_branch_1
    note C_, 2
    note C_, 2
    note C_, 2
    note C_, 4
    note C_, 2
    callchannel Music_TitleScreen_Ch4_branch_4
    note C_, 4
    note C_, 2
    callchannel Music_TitleScreen_Ch4_branch_4
    note C_, 4
    note C_, 2
    note C_, 4
    note C_, 2
    callchannel Music_TitleScreen_Ch4_branch_4
    callchannel Music_TitleScreen_Ch4_branch_1
    note B_, 10
    note D#, 2
    note D#, 12
Music_TitleScreen_Ch4_loop_3:
    note __, 16
    loopchannel 3, Music_TitleScreen_Ch4_loop_3
Music_TitleScreen_Ch4_loop_4:
    note C_, 2
    note D_, 2
    note D_, 2
    loopchannel 7, Music_TitleScreen_Ch4_loop_4
    callchannel Music_TitleScreen_Ch4_branch_4
Music_TitleScreen_Ch4_loop_5:
    note B_, 4
    note D#, 1
    note D#, 1
    note C_, 2
    note C_, 2
    note C_, 2
    note D#, 2
    note C_, 2
    note C_, 2
    note D#, 2
    note C_, 2
    note C_, 2
    loopchannel 7, Music_TitleScreen_Ch4_loop_5
    note B_, 6
    note D#, 2
    note D#, 2
    note D#, 2
    note D#, 12
    endchannel
   
Music_TitleScreen_Ch4_branch_1:
    note C_, 2
    note C_, 2
    note C_, 2
    note C_, 4
    note C_, 2
    note C_, 4
    note C_, 2
    note C_, 1
    note C_, 1
    note C_, 1
    note C_, 1
    note C_, 1
    note C_, 1
    endchannel
   
Music_TitleScreen_Ch4_branch_2:
    note C_, 2
    note C_, 2
    note C_, 2
    note C_, 4
    note C_, 2
    note C_, 4
    note C_, 2
    note C_, 2
    note C_, 2
    note C_, 2
    endchannel
   
Music_TitleScreen_Ch4_branch_3:
    note D#, 1
    note D#, 1
    note D#, 2
    note B_, 16
    note __, 16
    note __, 16
    note B_, 12
    note __, 12
    endchannel
   
Music_TitleScreen_Ch4_branch_4:
    note C_, 1
    note C_, 1
    note C_, 1
    note C_, 1
    note C_, 1
    note C_, 1
    endchannel